<svg width="513" height="358" viewBox="0 0 513 358" fill="none" xmlns="http://www.w3.org/2000/svg">
<path d="M75.1258 318.092C175.299 370.352 337.701 370.352 437.874 318.092C538.048 265.832 538.036 181.107 437.874 128.847C337.713 76.5865 175.299 76.5865 75.1258 128.847C-25.0479 181.107 -25.0359 265.832 75.1258 318.092Z" fill="#F5F5F5"/>
<path d="M191.823 64.0483V67.6923C191.823 67.6923 193.523 66.3951 193.574 65.4695C193.625 64.5439 191.823 64.0483 191.823 64.0483Z" fill="black"/>
<path d="M195.12 63.1665C195.3 63.6729 195.356 64.2056 195.285 64.7315C195.214 65.2573 195.017 65.7649 194.707 66.2225C194.397 66.6801 193.98 67.0779 193.482 67.391C192.985 67.7041 192.417 67.9258 191.815 68.0421C187.159 69.303 184.228 68.0421 183.523 69.1645C182.818 70.2868 205.655 81.554 205.655 81.554L201.314 65.3529L195.12 63.1665Z" fill="#80C4D3"/>
<path d="M197.091 231.963L295.306 183.338V19.7158C295.306 17.3837 293.811 16.2249 291.967 17.1432L288.637 18.7975L197.091 64.1213L197.176 64.8064L197.091 231.963Z" fill="#80C4D3"/>
<path d="M197.091 231.963L295.306 183.338V19.7158C295.306 17.3837 293.811 16.2249 291.967 17.1432L288.637 18.7975L197.091 64.1213L197.176 64.8064L197.091 231.963Z" fill="white"/>
<path d="M208.399 81.8163L213.208 77.1811L197.253 69.281C193.54 71.6787 190.694 72.9614 187.372 71.7662L208.399 81.8163Z" fill="#455A64"/>
<path d="M210.166 76.0954C210.124 76.0992 210.08 76.0939 210.04 76.0799C210 76.0659 209.965 76.0437 209.937 76.0152C209.771 75.8002 209.693 75.5437 209.716 75.2864V75.0605L197.822 69.1937C198.442 68.579 198.827 67.8159 198.926 67.0073L289.384 22.201C290.202 21.8512 291.104 21.6692 292.018 21.6692C292.932 21.6692 293.834 21.8512 294.652 22.201L309.622 29.6055L218.459 74.3609C217.751 74.2405 217.031 74.1795 216.309 74.1787C214.609 74.1335 212.941 74.583 211.577 75.4541C211.196 75.7882 210.703 76.0124 210.166 76.0954Z" fill="#FAFAFA"/>
<path d="M292.018 22.0334C292.862 22.0187 293.697 22.184 294.448 22.5144L308.764 29.6056L218.382 73.9819C217.699 73.8686 217.005 73.8124 216.309 73.8143C214.512 73.7603 212.748 74.239 211.313 75.1699C211.003 75.4251 210.628 75.6148 210.217 75.7237C210.159 75.5812 210.133 75.4302 210.141 75.2792V74.8273L209.691 74.6087L198.45 69.048C198.921 68.4984 199.235 67.8619 199.368 67.1896L289.571 22.5144C290.319 22.1825 291.151 22.0171 291.993 22.0334H292.018ZM291.993 21.3046C291.001 21.2855 290.021 21.4864 289.146 21.8876L198.493 66.7887C198.493 66.7887 198.943 67.3424 197.253 69.281L209.291 75.2355C209.291 75.2355 209.215 76.4598 210.141 76.4598C210.784 76.3803 211.38 76.1246 211.84 75.731C213.125 74.9088 214.699 74.4872 216.301 74.5358C217.046 74.5328 217.79 74.6013 218.518 74.7399L310.472 29.6056L294.864 21.8876C293.99 21.4854 293.01 21.2845 292.018 21.3046H291.993Z" fill="#E0E0E0"/>
<path d="M210.167 80.8471C211.11 80.3879 211.509 79.8486 211.067 79.63L210.294 79.251C209.444 78.8283 210.234 77.7351 212.087 76.8168C213.939 75.8986 216.131 75.4904 216.98 75.9131L217.754 76.2921C218.195 76.5108 219.81 76.0589 221.373 75.2864L220.812 243.434L218.552 244.556C218.103 244.644 217.634 244.608 217.21 244.454L216.445 244.068C215.596 243.645 213.404 244.068 211.551 244.957C209.699 245.846 208.909 246.969 209.759 247.391L210.532 247.77C210.974 247.989 210.532 248.499 209.682 248.995L210.167 80.8471Z" fill="#80C4D3"/>
<path d="M210.167 80.8471C211.11 80.3879 211.509 79.8486 211.067 79.63L210.294 79.251C209.444 78.8283 210.234 77.7351 212.087 76.8168C213.939 75.8986 216.131 75.4904 216.98 75.9131L217.754 76.2921C218.195 76.5108 219.81 76.0589 221.373 75.2864L220.812 243.434L218.552 244.556C218.103 244.644 217.634 244.608 217.21 244.454L216.445 244.068C215.596 243.645 213.404 244.068 211.551 244.957C209.699 245.846 208.909 246.969 209.759 247.391L210.532 247.77C210.974 247.989 210.532 248.499 209.682 248.995L210.167 80.8471Z" fill="white"/>
<path d="M218.552 244.556L318.721 194.933V31.3037C318.721 28.9715 317.226 27.8128 315.382 28.731L312.009 30.3854L218.552 74.7472L218.552 244.556Z" fill="#80C4D3"/>
<path d="M218.552 244.556L318.721 194.933V31.3037C318.721 28.9715 317.226 27.8128 315.382 28.731L312.009 30.3854L218.552 74.7472L218.552 244.556Z" fill="white"/>
<path d="M211.237 248.164V79.8633L205.162 81.9622V249.797C206.302 250.003 207.489 249.904 208.561 249.512L211.237 248.164Z" fill="#80C4D3"/>
<path d="M211.237 248.164V79.8633L205.162 81.9622V249.797C206.302 250.003 207.489 249.904 208.561 249.512L211.237 248.164Z" fill="white"/>
<path d="M181.075 237.297C181.067 237.392 181.067 237.487 181.075 237.582C181.077 237.645 181.094 237.707 181.126 237.764C181.168 237.903 181.234 238.035 181.321 238.157C181.344 238.228 181.381 238.295 181.432 238.354C181.575 238.582 181.749 238.795 181.95 238.988C182.163 239.21 182.39 239.422 182.63 239.622C182.902 239.834 183.182 240.038 183.479 240.256C183.645 240.387 183.824 240.504 184.015 240.606L184.465 240.876C184.805 241.08 185.161 241.269 185.552 241.466L198.008 247.632C200.199 248.738 202.615 249.48 205.127 249.818V81.962L181.058 69.4194V237.254L181.075 237.297Z" fill="#80C4D3"/>
<path d="M181.075 237.297C181.067 237.392 181.067 237.487 181.075 237.582C181.077 237.645 181.094 237.707 181.126 237.764C181.168 237.903 181.234 238.035 181.321 238.157C181.344 238.228 181.381 238.295 181.432 238.354C181.575 238.582 181.749 238.795 181.95 238.988C182.163 239.21 182.39 239.422 182.63 239.622C182.902 239.834 183.182 240.038 183.479 240.256C183.645 240.387 183.824 240.504 184.015 240.606L184.465 240.876C184.805 241.08 185.161 241.269 185.552 241.466L198.008 247.632C200.199 248.738 202.615 249.48 205.127 249.818V81.962L181.058 69.4194V237.254L181.075 237.297Z" fill="white"/>
<path d="M205.17 94.0239V111.573C197.251 110.232 184.958 104.103 181.058 99.6356V82.0935C186.512 87.3918 197.251 92.406 205.17 94.0239Z" fill="#FAFAFA"/>
<path d="M205.17 211.615V229.164C197.251 227.823 184.958 221.694 181.058 217.227V199.685C186.512 204.983 197.251 209.997 205.17 211.615Z" fill="#FAFAFA"/>
<path d="M199.784 80.665L201.433 78.2454C204.474 79.754 205.783 79.3532 206.717 79.2657C206.59 78.4381 206.794 77.5982 207.295 76.8825C208.082 75.8333 209.171 74.9751 210.455 74.3901C211.923 73.6522 213.551 73.1786 215.239 72.9981H215.596C216.605 72.9193 217.62 73.0833 218.527 73.4718L308.322 29.0153L312.086 27.1495C312.381 26.9725 312.726 26.8674 313.086 26.8456C313.445 26.8238 313.804 26.886 314.125 27.0256L317.464 28.6727C317.136 28.5279 316.769 28.4616 316.402 28.4809C316.034 28.5001 315.679 28.6042 315.374 28.782H315.323L221.381 75.3156C219.818 76.0882 218.195 76.5546 217.754 76.336L216.98 75.9497C216.427 75.7564 215.816 75.7231 215.239 75.8549C214.131 76.0191 213.066 76.3523 212.095 76.8388C210.235 77.7571 209.444 78.8503 210.303 79.273L211.067 79.652C211.509 79.8706 211.067 80.3808 210.218 80.8691L208.518 81.6926C206.658 82.5744 203.718 82.6182 199.784 80.665Z" fill="#80C4D3"/>
<path d="M199.784 80.665L201.433 78.2454C204.474 79.754 205.783 79.3532 206.717 79.2657C206.59 78.4381 206.794 77.5982 207.295 76.8825C208.082 75.8333 209.171 74.9751 210.455 74.3901C211.923 73.6522 213.551 73.1786 215.239 72.9981H215.596C216.605 72.9193 217.62 73.0833 218.527 73.4718L308.322 29.0153L312.086 27.1495C312.381 26.9725 312.726 26.8674 313.086 26.8456C313.445 26.8238 313.804 26.886 314.125 27.0256L317.464 28.6727C317.136 28.5279 316.769 28.4616 316.402 28.4809C316.034 28.5001 315.679 28.6042 315.374 28.782H315.323L221.381 75.3156C219.818 76.0882 218.195 76.5546 217.754 76.336L216.98 75.9497C216.427 75.7564 215.816 75.7231 215.239 75.8549C214.131 76.0191 213.066 76.3523 212.095 76.8388C210.235 77.7571 209.444 78.8503 210.303 79.273L211.067 79.652C211.509 79.8706 211.067 80.3808 210.218 80.8691L208.518 81.6926C206.658 82.5744 203.718 82.6182 199.784 80.665Z" fill="white"/>
<path d="M201.433 78.2454L187.227 71.176C186.93 71.0302 186.641 70.8699 186.377 70.7168L185.706 70.3014C185.683 70.291 185.662 70.276 185.647 70.2577C188.06 71.1614 191.331 70.3014 193.489 69.2228C194.743 68.6451 195.805 67.8022 196.573 66.774C197.125 65.9762 197.316 65.0319 197.108 64.1212L197.397 63.9755C197.592 63.8734 197.788 63.7933 197.983 63.6912L281.959 22.128L286.768 19.7376C287.218 19.5189 287.685 19.2784 288.161 19.0598L292.231 17.0265C292.51 16.897 292.822 16.8292 293.14 16.8292C293.457 16.8292 293.769 16.897 294.049 17.0265L293.131 16.5746L290.718 15.3721C290.456 15.2558 290.164 15.1951 289.869 15.1951C289.573 15.1951 289.282 15.2558 289.019 15.3721C289.019 15.3721 289.019 15.3721 288.977 15.3721C288.492 15.6053 287.999 15.8677 287.473 16.1009L286.538 16.5673C285.986 16.8515 285.425 17.1139 284.915 17.3617C284.55 17.5366 284.219 17.6969 283.921 17.8573C283.624 18.0176 283.412 18.0978 283.208 18.2071L281.967 18.812L193.956 62.4231C192.435 63.1519 191.543 63.9536 191.9 64.2087L192.027 64.2888L192.775 64.6605C193.701 65.1197 192.953 66.2274 191.076 67.1384C189.198 68.0494 187.771 68.0713 186.828 67.6559L185.919 67.204C185.726 67.091 185.505 67.0172 185.274 66.9881C185.043 66.9591 184.807 66.9756 184.585 67.0364C184.449 67.0947 184.279 67.1894 184.1 67.2769C183.922 67.3644 183.446 67.6049 183.047 67.8016C182.648 67.9984 182.197 68.2098 181.739 68.443C181.466 68.5573 181.248 68.7488 181.121 68.9852C180.994 69.2215 180.966 69.4883 181.042 69.7402C181.023 69.7999 181.023 69.8628 181.042 69.9224C181.082 70.0618 181.148 70.1947 181.237 70.316C181.254 70.3838 181.285 70.4481 181.331 70.5055C181.474 70.7334 181.648 70.9462 181.849 71.1395C182.062 71.3615 182.289 71.5731 182.529 71.7736C182.801 71.9849 183.081 72.189 183.378 72.4076C183.547 72.538 183.729 72.6551 183.922 72.7574L184.364 73.0271C184.704 73.2312 185.06 73.4279 185.451 73.6174L199.648 80.6576L201.433 78.2454Z" fill="#80C4D3"/>
<path d="M201.433 78.2454L187.227 71.176C186.93 71.0302 186.641 70.8699 186.377 70.7168L185.706 70.3014C185.683 70.291 185.662 70.276 185.647 70.2577C188.06 71.1614 191.331 70.3014 193.489 69.2228C194.743 68.6451 195.805 67.8022 196.573 66.774C197.125 65.9762 197.316 65.0319 197.108 64.1212L197.397 63.9755C197.592 63.8734 197.788 63.7933 197.983 63.6912L281.959 22.128L286.768 19.7376C287.218 19.5189 287.685 19.2784 288.161 19.0598L292.231 17.0265C292.51 16.897 292.822 16.8292 293.14 16.8292C293.457 16.8292 293.769 16.897 294.049 17.0265L293.131 16.5746L290.718 15.3721C290.456 15.2558 290.164 15.1951 289.869 15.1951C289.573 15.1951 289.282 15.2558 289.019 15.3721C289.019 15.3721 289.019 15.3721 288.977 15.3721C288.492 15.6053 287.999 15.8677 287.473 16.1009L286.538 16.5673C285.986 16.8515 285.425 17.1139 284.915 17.3617C284.55 17.5366 284.219 17.6969 283.921 17.8573C283.624 18.0176 283.412 18.0978 283.208 18.2071L281.967 18.812L193.956 62.4231C192.435 63.1519 191.543 63.9536 191.9 64.2087L192.027 64.2888L192.775 64.6605C193.701 65.1197 192.953 66.2274 191.076 67.1384C189.198 68.0494 187.771 68.0713 186.828 67.6559L185.919 67.204C185.726 67.091 185.505 67.0172 185.274 66.9881C185.043 66.9591 184.807 66.9756 184.585 67.0364C184.449 67.0947 184.279 67.1894 184.1 67.2769C183.922 67.3644 183.446 67.6049 183.047 67.8016C182.648 67.9984 182.197 68.2098 181.739 68.443C181.466 68.5573 181.248 68.7488 181.121 68.9852C180.994 69.2215 180.966 69.4883 181.042 69.7402C181.023 69.7999 181.023 69.8628 181.042 69.9224C181.082 70.0618 181.148 70.1947 181.237 70.316C181.254 70.3838 181.285 70.4481 181.331 70.5055C181.474 70.7334 181.648 70.9462 181.849 71.1395C182.062 71.3615 182.289 71.5731 182.529 71.7736C182.801 71.9849 183.081 72.189 183.378 72.4076C183.547 72.538 183.729 72.6551 183.922 72.7574L184.364 73.0271C184.704 73.2312 185.06 73.4279 185.451 73.6174L199.648 80.6576L201.433 78.2454Z" fill="white"/>
<path d="M223.973 79.5134V83.1574C223.973 83.1574 225.621 81.8674 225.672 80.971C225.723 80.0746 223.973 79.5134 223.973 79.5134Z" fill="black"/>
<path d="M227.261 78.6243C227.446 79.1315 227.507 79.6662 227.439 80.1946C227.371 80.7229 227.176 81.2335 226.866 81.6938C226.556 82.1542 226.138 82.5543 225.639 82.869C225.139 83.1836 224.569 83.4059 223.964 83.5218C219.3 84.7826 216.369 83.5218 215.672 84.6441C214.975 85.7665 237.762 97.0336 237.762 97.0336L233.429 80.8325L227.261 78.6243Z" fill="#80C4D3"/>
<path d="M227.261 78.6243C227.446 79.1315 227.507 79.6662 227.439 80.1946C227.371 80.7229 227.176 81.2335 226.866 81.6938C226.556 82.1542 226.138 82.5543 225.639 82.869C225.139 83.1836 224.569 83.4059 223.964 83.5218C219.3 84.7826 216.369 83.5218 215.672 84.6441C214.975 85.7665 237.762 97.0336 237.762 97.0336L233.429 80.8325L227.261 78.6243Z" fill="black"/>
<path d="M229.232 247.428L327.447 198.796V35.1809C327.447 32.8415 325.96 31.69 324.116 32.601L320.786 34.2627L229.232 79.5792L229.317 80.2715L229.232 247.428Z" fill="#80C4D3"/>
<path d="M240.54 97.2743L245.357 92.6392L229.402 84.739C225.689 87.144 222.843 88.4267 219.521 87.2242L240.54 97.2743Z" fill="#455A64"/>
<path d="M242.341 91.5532C242.298 91.5567 242.254 91.5521 242.213 91.5395C242.172 91.5269 242.134 91.5067 242.104 91.4803C241.948 91.2613 241.871 91.0078 241.883 90.7515V90.5328L230.031 84.666C230.65 84.0509 231.035 83.288 231.135 82.4797L321.534 37.6587C322.352 37.309 323.253 37.127 324.168 37.127C325.082 37.127 325.983 37.309 326.801 37.6587L341.746 45.0633L250.583 89.8259C249.879 89.6981 249.161 89.6346 248.442 89.6364C246.741 89.5901 245.073 90.0397 243.709 90.9118C242.919 91.473 242.494 91.5532 242.341 91.5532Z" fill="#FAFAFA"/>
<path d="M324.167 37.4911C325.01 37.4736 325.844 37.6417 326.589 37.9794L340.896 45.0633L250.531 89.4396C249.848 89.3267 249.154 89.2706 248.458 89.272C246.658 89.2208 244.891 89.7019 243.454 90.6349C243.143 90.8885 242.768 91.0779 242.358 91.1888C242.304 91.0427 242.278 90.8901 242.282 90.7369V90.2923L241.823 90.0664L230.591 84.5057C231.059 83.9549 231.373 83.319 231.509 82.6473L321.737 37.9794C322.486 37.6426 323.322 37.4746 324.167 37.4911ZM324.167 36.7623C323.174 36.7469 322.192 36.9474 321.313 37.3453L230.642 82.2537C230.642 82.2537 231.084 82.8004 229.402 84.739L241.432 90.7005C241.432 90.7005 241.356 91.9175 242.282 91.9175C242.926 91.8405 243.523 91.5845 243.981 91.1888C245.269 90.367 246.845 89.9456 248.45 89.9935C249.193 89.9901 249.935 90.061 250.659 90.2049L342.595 45.0706L326.988 37.3453C326.112 36.9474 325.133 36.7468 324.142 36.7623H324.167Z" fill="#E0E0E0"/>
<path d="M242.341 96.3051C243.276 95.846 243.675 95.3066 243.233 95.088L242.469 94.709C241.619 94.2863 242.401 93.1931 244.262 92.2749C246.122 91.3566 248.289 90.9485 249.138 91.3639L249.911 91.7501C250.353 91.9688 251.967 91.5169 253.531 90.7444L252.97 258.885L250.676 260.014C250.229 260.104 249.761 260.066 249.342 259.905L248.569 259.526C247.719 259.103 245.527 259.526 243.684 260.408C241.84 261.29 241.033 262.419 241.891 262.842L242.664 263.228C243.106 263.447 242.664 263.957 241.764 264.445L242.341 96.3051Z" fill="#80C4D3"/>
<path d="M242.341 96.3051C243.276 95.846 243.675 95.3066 243.233 95.088L242.469 94.709C241.619 94.2863 242.401 93.1931 244.262 92.2749C246.122 91.3566 248.289 90.9485 249.138 91.3639L249.911 91.7501C250.353 91.9688 251.967 91.5169 253.531 90.7444L252.97 258.885L250.676 260.014C250.229 260.104 249.761 260.066 249.342 259.905L248.569 259.526C247.719 259.103 245.527 259.526 243.684 260.408C241.84 261.29 241.033 262.419 241.891 262.842L242.664 263.228C243.106 263.447 242.664 263.957 241.764 264.445L242.341 96.3051Z" fill="white"/>
<path d="M250.667 260.022L350.871 210.398V46.7688C350.871 44.4294 349.384 43.2779 347.54 44.1889L344.21 45.8506L250.667 90.2123V260.022Z" fill="#80C4D3"/>
<path d="M250.667 260.022L350.871 210.398V46.7688C350.871 44.4294 349.384 43.2779 347.54 44.1889L344.21 45.8506L250.667 90.2123V260.022Z" fill="white"/>
<path d="M243.386 263.629V95.321L237.312 97.4273V265.262C238.439 265.457 239.609 265.356 240.668 264.97L243.386 263.629Z" fill="#80C4D3"/>
<path d="M243.386 263.629V95.321L237.312 97.4273V265.262C238.439 265.457 239.609 265.356 240.668 264.97L243.386 263.629Z" fill="white"/>
<path d="M213.216 252.763C213.209 252.855 213.209 252.948 213.216 253.04C213.217 253.103 213.235 253.165 213.267 253.222C213.305 253.361 213.368 253.494 213.454 253.615C213.483 253.684 213.52 253.75 213.565 253.812C213.714 254.039 213.891 254.251 214.092 254.446C214.3 254.672 214.527 254.883 214.771 255.08C215.043 255.292 215.324 255.496 215.621 255.714C215.791 255.843 215.973 255.96 216.165 256.064L216.615 256.334C216.946 256.538 217.312 256.735 217.694 256.924L230.158 263.09C232.347 264.195 234.759 264.937 237.269 265.276V97.4273L213.208 84.8774V252.763H213.216Z" fill="#80C4D3"/>
<path d="M213.216 252.763C213.209 252.855 213.209 252.948 213.216 253.04C213.217 253.103 213.235 253.165 213.267 253.222C213.305 253.361 213.368 253.494 213.454 253.615C213.483 253.684 213.52 253.75 213.565 253.812C213.714 254.039 213.891 254.251 214.092 254.446C214.3 254.672 214.527 254.883 214.771 255.08C215.043 255.292 215.324 255.496 215.621 255.714C215.791 255.843 215.973 255.96 216.165 256.064L216.615 256.334C216.946 256.538 217.312 256.735 217.694 256.924L230.158 263.09C232.347 264.195 234.759 264.937 237.269 265.276V97.4273L213.208 84.8774V252.763H213.216Z" fill="white"/>
<path d="M237.311 109.489V127.031C229.402 125.697 217.099 119.568 213.208 115.1V97.551C218.663 102.849 229.402 107.863 237.311 109.489Z" fill="#FAFAFA"/>
<path d="M237.311 227.073V244.622C229.402 243.281 217.099 237.159 213.208 232.692V215.142C218.663 220.441 229.402 225.462 237.311 227.073Z" fill="#FAFAFA"/>
<path d="M231.934 96.1229L233.573 93.6815C236.623 95.1901 237.923 94.7965 238.858 94.7018C238.736 93.8744 238.939 93.0357 239.436 92.3186C240.227 91.2719 241.314 90.4144 242.596 89.8261C244.069 89.0921 245.698 88.6188 247.388 88.4341C247.507 88.4341 247.634 88.4341 247.745 88.4341C248.754 88.3518 249.771 88.5161 250.676 88.9079L337.515 45.9089L340.472 44.4513L344.235 42.5346C344.529 42.3549 344.874 42.2476 345.233 42.2245C345.593 42.2013 345.953 42.2632 346.274 42.4034L349.605 44.0505C349.279 43.9056 348.913 43.8392 348.546 43.8584C348.18 43.8777 347.826 43.9818 347.523 44.1598H347.472L337.498 49.1521L253.505 90.7444C251.942 91.5169 250.319 91.9834 249.877 91.7647L249.138 91.3639C248.587 91.1638 247.974 91.1279 247.397 91.2619C246.286 91.4258 245.218 91.759 244.244 92.2458C242.392 93.1713 241.602 94.2572 242.46 94.6872L243.225 95.0662C243.667 95.2848 243.267 95.795 242.333 96.2833L240.634 97.0995C238.815 98.0397 235.859 98.0688 231.934 96.1229Z" fill="#80C4D3"/>
<path d="M231.934 96.1229L233.573 93.6815C236.623 95.1901 237.923 94.7965 238.858 94.7018C238.736 93.8744 238.939 93.0357 239.436 92.3186C240.227 91.2719 241.314 90.4144 242.596 89.8261C244.069 89.0921 245.698 88.6188 247.388 88.4341C247.507 88.4341 247.634 88.4341 247.745 88.4341C248.754 88.3518 249.771 88.5161 250.676 88.9079L337.515 45.9089L340.472 44.4513L344.235 42.5346C344.529 42.3549 344.874 42.2476 345.233 42.2245C345.593 42.2013 345.953 42.2632 346.274 42.4034L349.605 44.0505C349.279 43.9056 348.913 43.8392 348.546 43.8584C348.18 43.8777 347.826 43.9818 347.523 44.1598H347.472L337.498 49.1521L253.505 90.7444C251.942 91.5169 250.319 91.9834 249.877 91.7647L249.138 91.3639C248.587 91.1638 247.974 91.1279 247.397 91.2619C246.286 91.4258 245.218 91.759 244.244 92.2458C242.392 93.1713 241.602 94.2572 242.46 94.6872L243.225 95.0662C243.667 95.2848 243.267 95.795 242.333 96.2833L240.634 97.0995C238.815 98.0397 235.859 98.0688 231.934 96.1229Z" fill="white"/>
<path d="M233.573 93.6815L219.402 86.6411L218.552 86.1747L217.881 85.7666C217.855 85.7554 217.834 85.7375 217.821 85.7155C220.226 86.6193 223.505 85.7593 225.655 84.6807C226.915 84.1075 227.981 83.2638 228.747 82.2319C229.297 81.4332 229.484 80.4888 229.274 79.5791L229.563 79.4333L230.149 79.1491L318.959 35.1736C319.41 34.9622 319.877 34.7144 320.353 34.4958L324.414 32.4843C324.693 32.3548 325.005 32.287 325.323 32.287C325.64 32.287 325.953 32.3548 326.232 32.4843L325.323 32.0325L322.859 30.8737C322.597 30.7562 322.305 30.6948 322.009 30.6948C321.713 30.6948 321.422 30.7562 321.16 30.8737C321.16 30.8737 321.16 30.8737 321.117 30.8737C320.633 31.1142 320.14 31.3693 319.613 31.6025L318.67 32.0616C318.118 32.3459 317.566 32.6082 317.056 32.856C316.691 33.0382 316.351 33.1985 316.054 33.3589C315.756 33.5192 315.552 33.5994 315.348 33.7087L314.099 34.3136L226.139 77.8591C224.61 78.5879 223.726 79.3823 224.083 79.6374C224.121 79.6692 224.164 79.6962 224.211 79.7176L224.958 80.0892C225.884 80.5484 225.137 81.6562 223.259 82.5671C221.381 83.4781 219.954 83.5073 219.011 83.0846L218.093 82.6327C217.902 82.5193 217.683 82.4452 217.453 82.4162C217.224 82.3871 216.989 82.4038 216.768 82.4651L216.275 82.7129L215.222 83.2304L213.922 83.8717C213.65 83.9869 213.432 84.1782 213.303 84.4141C213.175 84.6499 213.145 84.9162 213.217 85.169C213.216 85.2323 213.234 85.2948 213.268 85.3512C213.308 85.4891 213.371 85.6216 213.454 85.7447C213.478 85.8127 213.51 85.8786 213.548 85.9415C213.699 86.1645 213.876 86.3744 214.075 86.5682C214.283 86.7935 214.51 87.0055 214.754 87.2023C215.026 87.4209 215.307 87.6177 215.604 87.8363C215.774 87.965 215.956 88.082 216.148 88.1862L216.598 88.4631C216.929 88.6599 217.295 88.8567 217.677 89.0462L231.883 96.0863L233.573 93.6815Z" fill="#80C4D3"/>
<path d="M233.573 93.6815L219.402 86.6411L218.552 86.1747L217.881 85.7666C217.855 85.7554 217.834 85.7375 217.821 85.7155C220.226 86.6193 223.505 85.7593 225.655 84.6807C226.915 84.1075 227.981 83.2638 228.747 82.2319C229.297 81.4332 229.484 80.4888 229.274 79.5791L229.563 79.4333L230.149 79.1491L318.959 35.1736C319.41 34.9622 319.877 34.7144 320.353 34.4958L324.414 32.4843C324.693 32.3548 325.005 32.287 325.323 32.287C325.64 32.287 325.953 32.3548 326.232 32.4843L325.323 32.0325L322.859 30.8737C322.597 30.7562 322.305 30.6948 322.009 30.6948C321.713 30.6948 321.422 30.7562 321.16 30.8737C321.16 30.8737 321.16 30.8737 321.117 30.8737C320.633 31.1142 320.14 31.3693 319.613 31.6025L318.67 32.0616C318.118 32.3459 317.566 32.6082 317.056 32.856C316.691 33.0382 316.351 33.1985 316.054 33.3589C315.756 33.5192 315.552 33.5994 315.348 33.7087L314.099 34.3136L226.139 77.8591C224.61 78.5879 223.726 79.3823 224.083 79.6374C224.121 79.6692 224.164 79.6962 224.211 79.7176L224.958 80.0892C225.884 80.5484 225.137 81.6562 223.259 82.5671C221.381 83.4781 219.954 83.5073 219.011 83.0846L218.093 82.6327C217.902 82.5193 217.683 82.4452 217.453 82.4162C217.224 82.3871 216.989 82.4038 216.768 82.4651L216.275 82.7129L215.222 83.2304L213.922 83.8717C213.65 83.9869 213.432 84.1782 213.303 84.4141C213.175 84.6499 213.145 84.9162 213.217 85.169C213.216 85.2323 213.234 85.2948 213.268 85.3512C213.308 85.4891 213.371 85.6216 213.454 85.7447C213.478 85.8127 213.51 85.8786 213.548 85.9415C213.699 86.1645 213.876 86.3744 214.075 86.5682C214.283 86.7935 214.51 87.0055 214.754 87.2023C215.026 87.4209 215.307 87.6177 215.604 87.8363C215.774 87.965 215.956 88.082 216.148 88.1862L216.598 88.4631C216.929 88.6599 217.295 88.8567 217.677 89.0462L231.883 96.0863L233.573 93.6815Z" fill="white"/>
<path d="M398.993 208.241V15.0151C398.993 10.5622 397.149 9.74593 394.864 8.61629C392.578 7.48666 389.885 7.35548 386.631 8.96612L260.667 71.3583C258.955 72.3166 257.529 73.608 256.508 75.1276C255.486 76.6472 254.897 78.3522 254.788 80.1038V273.322C254.788 276.543 255.935 277.695 258.187 278.854C260.438 280.012 263.862 280.982 267.116 279.371L393.079 216.979C394.926 216.149 396.461 214.889 397.507 213.342C398.554 211.796 399.069 210.027 398.993 208.241Z" fill="#37474F"/>
<path d="M393.698 209.873L265.407 273.431V79.455L256.503 75.126C255.453 76.6318 254.868 78.3425 254.804 80.0964V273.322C254.804 276.543 255.951 277.695 258.202 278.853C260.454 280.012 263.878 280.982 267.132 279.371L393.095 216.979C395.408 215.916 397.212 214.19 398.193 212.103L397.861 211.943L393.698 209.873Z" fill="#263238"/>
<path d="M392.96 13.5212L266.751 76.0591C265.55 76.731 264.55 77.636 263.833 78.7008C263.116 79.7656 262.701 80.9603 262.621 82.1883V273.985C262.621 277.44 265.485 278.854 268.968 277.119L392.96 215.718C394.319 214.953 395.449 213.926 396.261 212.718C397.072 211.511 397.542 210.157 397.633 208.765V15.8387C397.633 13.2879 395.526 12.2458 392.96 13.5212Z" fill="#455A64"/>
<path d="M335.195 235.25C335.195 238.121 333.165 241.452 330.65 242.698C328.135 243.944 326.113 242.618 326.113 239.783C326.113 236.948 328.143 233.574 330.65 232.335C333.156 231.096 335.195 232.378 335.195 235.25Z" fill="#263238"/>
<path d="M395.382 31.996V192.44C395.296 193.78 394.844 195.084 394.062 196.247C393.279 197.409 392.189 198.397 390.879 199.131L271.415 258.302C268.934 259.54 266.921 258.542 266.921 256.079V94.4392C267.058 92.2203 268.187 90.1321 270.073 88.6088L270.506 88.2809C270.792 88.0807 271.096 87.9004 271.415 87.7416L389.239 29.416L389.681 29.1901C392.816 27.6232 395.382 28.8913 395.382 31.996Z" fill="black"/>
<path d="M384.345 194.802C385.654 194.066 386.743 193.076 387.523 191.913C388.304 190.749 388.755 189.445 388.84 188.104V29.5911L271.415 87.7562C271.096 87.915 270.792 88.0954 270.506 88.2955L270.073 88.6235C268.187 90.1468 267.058 92.2349 266.921 94.4539V252.96L384.345 194.802Z" fill="#FAFAFA"/>
<path d="M278.093 92.6756L376.342 44.0066V188.119L278.093 236.788V92.6756Z" fill="#80C4D3"/>
<path d="M275.34 91.2908L278.093 92.6756V236.788L275.34 235.425V91.2908Z" fill="#80C4D3"/>
<path d="M275.34 91.2908L278.093 92.6756V236.788L275.34 235.425V91.2908Z" fill="black"/>
<path d="M275.34 91.2908L373.589 42.6218L376.334 44.0065L278.093 92.6756L275.34 91.2908Z" fill="#80C4D3"/>
<path d="M275.34 91.2908L373.589 42.6218L376.334 44.0065L278.093 92.6756L275.34 91.2908Z" fill="white"/>
<path d="M280.914 95.1826L283.786 96.6402C287.337 98.433 301.186 97.9957 310.353 93.4626L384.558 56.6949L371.601 50.2815L280.914 95.1826Z" fill="#E0E0E0"/>
<path d="M290.667 230.185C287.6 230.185 285.17 229.849 283.998 229.252L281.339 227.911V95.8165L283.573 96.9534C284.89 97.6166 287.413 97.981 290.667 97.981C296.181 97.981 304.261 96.8733 310.565 93.7613L384.133 57.3215V189.408L310.14 226.067C304.006 229.106 296.062 230.185 290.667 230.185Z" fill="#FAFAFA"/>
<path d="M383.708 57.9559V189.205L309.928 225.754C303.87 228.756 296.011 229.82 290.667 229.82C287.719 229.82 285.306 229.492 284.219 228.939L281.763 227.7V96.4654L283.361 97.2744C284.737 98.0032 287.337 98.353 290.667 98.353C296.232 98.353 304.44 97.2307 310.778 94.0896L383.708 57.9632V57.9559ZM384.558 56.7024L310.353 93.4555C304.406 96.3707 296.47 97.6242 290.667 97.6242C287.541 97.6242 285.026 97.2744 283.786 96.6476L280.914 95.19V228.122L283.786 229.58C285.026 230.214 287.541 230.564 290.667 230.564C296.47 230.564 304.397 229.347 310.353 226.402L384.524 189.657V56.6951L384.558 56.7024Z" fill="#E0E0E0"/>
<path d="M310.353 144.5C306.778 146.191 302.903 147.365 298.883 147.977V150.331C302.903 149.719 306.778 148.545 310.353 146.854L376.792 113.876V111.522L310.353 144.5Z" fill="#E0E0E0"/>
<path d="M310.353 150.287C306.776 151.974 302.902 153.148 298.883 153.763V156.11C302.901 155.498 306.776 154.326 310.353 152.641L376.792 119.656V117.309L310.353 150.287Z" fill="#E0E0E0"/>
<path d="M310.353 156.066C306.778 157.757 302.903 158.931 298.883 159.542V161.896C302.902 161.282 306.776 160.107 310.353 158.42L376.792 125.442V123.088L310.353 156.066Z" fill="#E0E0E0"/>
<path d="M310.353 161.853C306.776 163.538 302.901 164.71 298.883 165.322V167.676C302.903 167.064 306.778 165.89 310.353 164.199L376.792 131.221V128.875L310.353 161.853Z" fill="#E0E0E0"/>
<path d="M310.353 167.632C306.778 169.323 302.903 170.497 298.883 171.109V173.455C302.901 172.843 306.776 171.671 310.353 169.986L376.792 137.008V134.654L310.353 167.632Z" fill="#E0E0E0"/>
<path d="M310.353 173.412C306.778 175.102 302.903 176.277 298.883 176.888V179.242C302.903 178.631 306.778 177.456 310.353 175.766L376.792 142.788V140.434L310.353 173.412Z" fill="#E0E0E0"/>
<path d="M310.353 179.198C306.777 180.886 302.902 182.058 298.883 182.667V185.021C302.901 184.409 306.776 183.237 310.353 181.552L376.792 148.567V146.22L310.353 179.198Z" fill="#E0E0E0"/>
<path d="M310.353 184.978C306.778 186.668 302.903 187.842 298.883 188.454V190.808C302.902 190.193 306.776 189.019 310.353 187.332L376.792 154.354V152L310.353 184.978Z" fill="#E0E0E0"/>
<path d="M310.353 190.764C306.776 192.449 302.901 193.621 298.883 194.233V196.587C302.903 195.976 306.778 194.801 310.353 193.111L376.792 160.133V157.786L310.353 190.764Z" fill="#E0E0E0"/>
<path d="M310.353 196.543C306.778 198.234 302.903 199.408 298.883 200.02V202.367C302.901 201.754 306.776 200.582 310.353 198.897L376.792 165.919V163.565L310.353 196.543Z" fill="#E0E0E0"/>
<path d="M310.353 202.323C306.778 204.013 302.903 205.188 298.883 205.799V208.153C302.903 207.542 306.778 206.367 310.353 204.677L376.792 171.699V169.345L310.353 202.323Z" fill="#E0E0E0"/>
<path d="M310.353 208.11C306.777 209.798 302.902 210.97 298.883 211.579V213.933C302.903 213.321 306.778 212.147 310.353 210.456L376.792 177.478V175.132L310.353 208.11Z" fill="#E0E0E0"/>
<path d="M374.524 51.7173L347.914 65.1854L375.391 52.1473L374.524 51.7173ZM379.741 54.3045L324.839 81.0221L380.633 54.7855L379.741 54.3045Z" fill="black"/>
<path d="M294.915 97.42C289.877 97.8646 285.57 97.5293 283.786 96.6402L280.914 95.1826V228.115L283.786 229.573C285.553 230.469 289.877 230.804 294.915 230.36V97.42Z" fill="black"/>
<path d="M333.25 124.969L333.862 124.531C334.235 124.262 334.252 124.123 334.252 123.577V116.66C334.252 116.114 334.252 116.019 333.853 116.121L333.25 116.289V115.48L336.708 113.767V114.576L336.036 115.057C335.722 115.283 335.688 115.458 335.688 115.961V122.921C335.688 123.409 335.688 123.526 336.045 123.438L336.708 123.263V124.072L333.25 125.778V124.969Z" fill="#455A64"/>
<path d="M337.447 122.877L337.846 122.571C338.21 122.296 338.473 121.937 338.602 121.536L340.557 117.214L338.458 114.467C338.203 114.153 338.067 114.131 337.753 114.182L337.396 114.241L337.523 113.359L340.684 111.792V112.615L340.106 113.031C340.056 113.062 340.014 113.103 339.984 113.15C339.954 113.196 339.936 113.248 339.931 113.301C339.926 113.355 339.935 113.408 339.956 113.458C339.978 113.509 340.011 113.554 340.055 113.592L341.415 115.407L342.715 112.346C342.893 111.938 342.927 111.755 342.613 111.806L342.094 111.872L342.205 111.041L344.975 109.664V110.487L344.533 110.83C344.187 111.078 343.938 111.412 343.819 111.785L341.992 115.99L344.142 118.81C344.171 118.871 344.215 118.926 344.27 118.971C344.325 119.017 344.39 119.053 344.462 119.076C344.533 119.099 344.61 119.11 344.686 119.106C344.763 119.103 344.838 119.087 344.907 119.058L345.297 118.956V119.787L341.848 121.499V120.676L342.4 120.282C342.462 120.249 342.514 120.203 342.552 120.15C342.59 120.097 342.614 120.036 342.622 119.974C342.629 119.912 342.62 119.848 342.595 119.79C342.57 119.731 342.529 119.677 342.477 119.634L341.109 117.855L339.681 121.099C339.529 121.427 339.486 121.638 339.775 121.58L340.353 121.456V122.236L337.447 123.693V122.877Z" fill="#455A64"/>
<path d="M334.099 206.185L335.195 205.639V206.105L334.099 206.645V206.185Z" fill="#455A64"/>
<path d="M336.274 206.513L336.572 206.302C336.611 206.275 336.64 206.241 336.658 206.201C336.676 206.161 336.682 206.118 336.674 206.076V204.378C336.674 204.232 336.674 204.152 336.538 204.21L336.223 204.363V204.05L337.022 203.518H337.124V205.785C337.124 205.945 337.124 205.96 337.226 205.93L337.506 205.85V206.127L336.249 206.754L336.274 206.513Z" fill="#455A64"/>
<path d="M337.77 206.608C338.095 206.435 338.369 206.2 338.569 205.92C338.77 205.64 338.892 205.325 338.925 204.998C338.925 204.655 338.781 204.524 338.594 204.538C338.475 204.666 338.344 204.785 338.203 204.896L338.16 204.575C338.359 204.433 338.522 204.258 338.637 204.06C338.753 203.861 338.819 203.645 338.832 203.423C338.832 203.146 338.696 203.03 338.449 203.154C338.283 203.236 338.154 203.365 338.084 203.518C338.149 203.575 338.188 203.65 338.194 203.729C338.191 203.812 338.167 203.892 338.123 203.966C338.079 204.039 338.016 204.102 337.94 204.152C337.744 204.247 337.676 204.152 337.676 203.941C337.701 203.7 337.79 203.467 337.938 203.261C338.085 203.055 338.286 202.881 338.526 202.753C338.993 202.52 339.307 202.636 339.307 203.132C339.289 203.515 339.128 203.882 338.849 204.181C339.163 204.138 339.435 204.181 339.435 204.713C339.392 205.165 339.22 205.601 338.934 205.982C338.648 206.364 338.257 206.679 337.795 206.9L337.77 206.608Z" fill="#455A64"/>
<path d="M339.8 203.642C339.762 203.254 339.839 202.863 340.024 202.507C340.21 202.152 340.499 201.842 340.862 201.609C341.406 201.332 341.924 201.412 341.924 202.498C341.972 202.897 341.897 203.3 341.708 203.666C341.519 204.033 341.221 204.351 340.845 204.589C340.166 204.925 339.8 204.56 339.8 203.642ZM341.406 202.782C341.406 201.951 341.185 201.806 340.871 201.959C340.556 202.112 340.31 202.636 340.31 203.358C340.31 204.079 340.514 204.4 340.854 204.232C341.194 204.065 341.406 203.598 341.406 202.782Z" fill="#455A64"/>
<path d="M342.935 201.813L344.031 201.273V201.732L342.935 202.272V201.813Z" fill="#455A64"/>
<path d="M283.717 96.5964V113.359C286.946 109.62 288.152 106.442 288.152 103.833C288.18 102.405 287.788 100.993 287.013 99.7287C286.238 98.4641 285.105 97.387 283.717 96.5964Z" fill="#F0F0F0"/>
<path d="M283.717 96.5964V113.359C286.946 109.62 288.152 106.442 288.152 103.833C288.18 102.405 287.788 100.993 287.013 99.7287C286.238 98.4641 285.105 97.387 283.717 96.5964Z" fill="#E0E0E0"/>
<path d="M283.582 96.531C287.133 98.3238 286.343 105.371 277.192 109.941L203.276 146.818L189.971 140.193L280.88 95.1535L283.582 96.531Z" fill="#E0E0E0"/>
<path d="M189.971 140.222L203.285 146.818V279.75L189.971 273.154V140.222Z" fill="#E0E0E0"/>
<path d="M189.971 140.222L203.285 146.818V279.75L189.971 273.154V140.222Z" fill="black"/>
<path d="M277.175 109.933L273.87 111.588L203.259 146.818V279.75L277.175 242.866C283.887 239.521 285.502 236.598 285.527 233.989V99.5044C285.487 103.625 282.704 107.101 277.175 109.933Z" fill="#F0F0F0"/>
<path d="M210.727 155.644L273.887 124.342L277.201 122.688V120.282L273.887 121.937L210.727 153.239V155.644Z" fill="black"/>
<path d="M210.727 161.423L273.887 130.121L277.201 128.467V126.062L273.887 127.716L210.727 159.011V161.423Z" fill="black"/>
<path d="M210.727 167.202L273.887 135.9L277.201 134.246V131.841L273.887 133.495L210.727 164.79V167.202Z" fill="black"/>
<path d="M210.727 172.982L273.887 141.68L277.201 140.025V137.62L273.887 139.275L210.727 170.569V172.982Z" fill="black"/>
<path d="M210.727 178.761L273.887 147.459L277.201 145.805V143.4L273.887 145.047L210.727 176.349V178.761Z" fill="black"/>
<path d="M210.727 184.54L273.887 153.239L277.201 151.584V149.172L273.887 150.826L210.727 182.128V184.54Z" fill="black"/>
<path d="M210.727 190.312L273.887 159.018L277.201 157.364V154.951L273.887 156.606L210.727 187.907V190.312Z" fill="black"/>
<path d="M210.727 196.092L273.887 164.797L277.201 163.143V160.731L273.887 162.385L210.727 193.687V196.092Z" fill="black"/>
<path d="M210.727 201.871L273.887 170.577L277.201 168.922V166.51L273.887 168.164L210.727 199.466V201.871Z" fill="black"/>
<path d="M210.727 207.65L273.887 176.356L277.201 174.702V172.289L273.887 173.944L210.727 205.245V207.65Z" fill="black"/>
<path d="M210.727 213.43L273.887 182.135L277.201 180.474V178.069L273.887 179.723L210.727 211.025V213.43Z" fill="black"/>
<path d="M210.727 219.209L273.887 187.915L277.201 186.253V183.848L273.887 185.502L210.727 216.804V219.209Z" fill="black"/>
<path d="M210.727 224.988L273.887 193.687L277.201 192.032V189.627L273.887 191.282L210.727 222.583V224.988Z" fill="black"/>
<path d="M210.727 230.768L273.887 199.466L277.201 197.812V195.407L273.887 197.061L210.727 228.363V230.768Z" fill="black"/>
<path d="M210.727 236.547L273.887 205.245L277.201 203.591V201.186L273.887 202.84L210.727 234.142V236.547Z" fill="black"/>
<path d="M210.727 242.326L273.887 211.025L277.201 209.37V206.965L273.887 208.62L210.727 239.914V242.326Z" fill="black"/>
<path d="M210.727 248.106L273.887 216.804L277.201 215.15V212.745L273.887 214.399L210.727 245.694V248.106Z" fill="black"/>
<path d="M210.727 253.885L273.887 222.583L277.201 220.929V218.524L273.887 220.178L210.727 251.473V253.885Z" fill="black"/>
<path d="M210.727 259.664L273.887 228.363L277.201 226.708V224.303L273.887 225.958L210.727 257.252V259.664Z" fill="black"/>
<path d="M199.691 145.025L226.301 131.557L198.824 144.566L199.691 145.025ZM194.474 142.445L249.376 115.728L193.582 141.964L194.474 142.445Z" fill="black"/>
<path d="M198.824 144.566L198.824 180.729L199.674 145.018L198.824 144.566ZM194.024 166.823L194.474 142.416L193.625 141.964L194.024 166.823Z" fill="black"/>
<path d="M272.97 98.0395C272.869 97.9968 272.783 97.933 272.719 97.8539C272.655 97.7749 272.616 97.6833 272.604 97.5876V99.3003L275.476 97.9229C275.099 98.1108 274.675 98.2193 274.239 98.2396C273.804 98.2598 273.369 98.1913 272.97 98.0395ZM285.714 92.7994L285.79 92.763L279.614 95.8166L285.714 92.7994ZM285.79 92.763L286.394 92.4569V92.0342C286.372 92.1874 286.308 92.3339 286.206 92.4609C286.104 92.588 285.967 92.6916 285.807 92.763H285.79Z" fill="#263238"/>
<path d="M285.731 92.8215L275.476 97.9229C275.105 98.1125 274.688 98.2253 274.257 98.2519C273.826 98.2784 273.394 98.2182 272.995 98.0761C272.392 97.7773 272.536 97.2234 273.301 96.8444L283.59 91.7428C283.962 91.5548 284.379 91.4431 284.809 91.4166C285.24 91.39 285.672 91.4493 286.071 91.5898C286.64 91.8594 286.521 92.4133 285.731 92.8215Z" fill="#455A64"/>
<path d="M225.349 149.573C227.193 148.64 240.846 141.687 254.346 134.057C267.847 126.426 276.971 120.501 281.092 116.668C282.157 115.685 283.155 114.651 284.083 113.57C285.637 111.842 286.875 109.92 287.753 107.871V235.986C287.753 239.696 285.374 243.879 280.786 248.419C270.047 259.045 230.804 278.941 225.307 281.696L225.349 149.573Z" fill="#F5F5F5"/>
<path d="M287.371 109.715V235.957C287.371 239.601 285.026 243.682 280.506 248.15C270.158 258.389 233.14 277.301 225.774 281.033L225.842 149.784C228.34 148.516 241.568 141.767 254.644 134.363C268.297 126.645 277.328 120.778 281.475 116.923C282.548 115.928 283.558 114.884 284.499 113.796C285.618 112.523 286.588 111.158 287.396 109.722L287.371 109.715ZM288.246 103.841C288.246 106.45 287.04 109.627 283.811 113.366C282.891 114.434 281.901 115.456 280.846 116.427C276.037 120.902 265.103 127.585 254.177 133.758C239.58 142.015 224.992 149.369 224.992 149.369L224.856 282.308C224.856 282.308 269.402 260.182 281.084 248.631C286.564 243.208 288.127 238.989 288.153 235.964L288.152 103.833L288.246 103.841Z" fill="#E0E0E0"/>
<path d="M288.22 117.032C288.22 119.452 287.099 122.403 284.108 125.865C283.256 126.853 282.34 127.8 281.364 128.7C278.39 131.462 272.868 135.135 266.581 138.961C263.403 140.893 260.022 142.86 256.632 144.792C248.484 149.398 240.345 153.698 235.145 156.401V153.953C240.345 151.256 248.484 146.949 256.632 142.343C260.03 140.426 263.429 138.459 266.581 136.513C272.902 132.679 278.39 129.013 281.364 126.251C282.338 125.347 283.254 124.398 284.108 123.409C287.099 119.947 288.22 116.996 288.22 114.576V117.032Z" fill="#E0E0E0"/>
<path d="M288.22 122.542C288.22 124.961 287.099 127.913 284.108 131.375C283.256 132.363 282.34 133.309 281.364 134.21C278.39 136.972 272.868 140.645 266.581 144.471C263.403 146.402 260.022 148.37 256.632 150.302C248.484 154.908 240.345 159.207 235.145 161.911V159.463C240.345 156.766 248.484 152.459 256.632 147.853C260.03 145.936 263.429 143.968 266.581 142.022C272.902 138.189 278.39 134.523 281.364 131.761C282.338 130.857 283.254 129.908 284.108 128.919C287.099 125.457 288.22 122.505 288.22 120.086V122.542Z" fill="#E0E0E0"/>
<path d="M288.22 128.051C288.22 130.471 287.099 133.422 284.108 136.884C283.256 137.873 282.34 138.819 281.364 139.719C278.39 142.481 272.868 146.155 266.581 149.981C263.403 151.912 260.022 153.88 256.632 155.811C248.484 160.417 240.345 164.717 235.145 167.421V164.972C240.345 162.275 248.484 157.968 256.632 153.362C260.03 151.446 263.429 149.478 266.581 147.532C272.902 143.699 278.39 140.033 281.364 137.271C282.338 136.366 283.254 135.417 284.108 134.428C287.099 130.966 288.22 128.015 288.22 125.595V128.051Z" fill="#E0E0E0"/>
<path d="M288.22 133.561C288.22 135.981 287.099 138.932 284.108 142.394C283.256 143.382 282.34 144.329 281.364 145.229C278.39 147.991 272.868 151.664 266.581 155.49C263.403 157.422 260.022 159.39 256.632 161.321C248.484 165.927 240.345 170.227 235.145 172.931V170.482C240.345 167.785 248.484 163.478 256.632 158.872C260.03 156.955 263.429 154.988 266.581 153.042C272.902 149.208 278.39 145.542 281.364 142.78C282.338 141.876 283.254 140.927 284.108 139.938C287.099 136.476 288.22 133.525 288.22 131.105V133.561Z" fill="#E0E0E0"/>
<path d="M288.22 139.071C288.22 141.49 287.099 144.442 284.108 147.904C283.256 148.892 282.34 149.838 281.364 150.739C278.39 153.501 272.868 157.174 266.581 161C263.403 162.931 260.022 164.899 256.632 166.831C248.484 171.437 240.345 175.744 235.145 178.44V175.977C240.345 173.28 248.484 168.973 256.632 164.367C260.03 162.45 263.429 160.483 266.581 158.537C272.902 154.703 278.39 151.038 281.364 148.275C282.336 147.372 283.252 146.426 284.108 145.44C287.099 141.971 288.22 139.02 288.22 136.6V139.071Z" fill="#E0E0E0"/>
<path d="M288.22 144.566C288.22 146.985 287.099 149.937 284.108 153.399C283.256 154.387 282.34 155.334 281.364 156.234C278.39 158.996 272.868 162.669 266.581 166.495C263.403 168.427 260.022 170.394 256.632 172.326C248.484 176.932 240.345 181.239 235.145 183.935V181.487C240.345 178.79 248.484 174.49 256.632 169.877C260.03 167.96 263.429 165.992 266.581 164.046C272.902 160.213 278.39 156.547 281.364 153.785C282.336 152.882 283.252 151.935 284.108 150.95C287.056 147.481 288.22 144.566 288.22 142.132V144.566Z" fill="#E0E0E0"/>
<path d="M288.22 150.09C288.22 152.51 287.099 155.461 284.108 158.923C283.256 159.911 282.34 160.858 281.364 161.758C278.39 164.52 272.868 168.193 266.581 172.027C263.403 173.951 260.022 175.919 256.632 177.857C248.484 182.463 240.345 186.77 235.145 189.467V187.018C240.345 184.322 248.484 180.022 256.632 175.408C260.03 173.492 263.429 171.524 266.581 169.578C272.902 165.745 278.39 162.079 281.364 159.317C282.336 158.413 283.252 157.467 284.108 156.482C287.099 153.013 288.22 150.061 288.22 147.641V150.09Z" fill="#E0E0E0"/>
<path d="M288.22 155.6C288.22 158.019 287.099 160.971 284.108 164.433C283.256 165.421 282.34 166.368 281.364 167.268C278.39 170.03 272.868 173.703 266.581 177.537C263.403 179.461 260.022 181.428 256.632 183.367C248.484 187.973 240.345 192.28 235.145 194.977V192.528C240.345 189.831 248.484 185.532 256.632 180.918C260.03 179.001 263.429 177.034 266.581 175.088C272.902 171.254 278.39 167.589 281.364 164.826C282.336 163.923 283.252 162.977 284.108 161.991C287.099 158.522 288.22 155.571 288.22 153.151V155.6Z" fill="#E0E0E0"/>
<path d="M284.066 167.501C283.209 168.486 282.293 169.433 281.322 170.336C276.853 174.49 266.717 180.685 256.589 186.406C248.442 191.019 240.302 195.319 235.103 198.016V200.464C240.302 197.768 248.442 193.461 256.589 188.855C266.717 183.126 276.853 176.932 281.322 172.777C282.297 171.877 283.214 170.931 284.066 169.942C287.056 166.481 288.178 163.529 288.178 161.109V158.661C288.22 161.08 287.056 164.032 284.066 167.501Z" fill="#E0E0E0"/>
<path d="M284.066 172.989C283.209 173.974 282.293 174.921 281.322 175.824C276.853 179.978 266.717 186.173 256.589 191.894C248.442 196.507 240.302 200.807 235.103 203.504V205.952C240.302 203.256 248.442 198.949 256.589 194.343C266.717 188.614 276.853 182.419 281.322 178.273C282.296 177.368 283.212 176.42 284.066 175.43C287.056 171.969 288.178 169.017 288.178 166.597V164.17C288.22 166.59 287.056 169.542 284.066 172.989Z" fill="#E0E0E0"/>
<path d="M284.066 178.521C283.209 179.506 282.293 180.452 281.322 181.356C276.853 185.51 266.717 191.704 256.589 197.389C248.442 202.002 240.302 206.302 235.103 208.999V211.447C240.302 208.751 248.442 204.444 256.589 199.838C266.717 194.109 276.853 187.915 281.322 183.768C282.296 182.864 283.212 181.915 284.066 180.926C287.056 177.464 288.178 174.512 288.178 172.093V169.644C288.22 172.1 287.056 175.059 284.066 178.521Z" fill="#E0E0E0"/>
<path d="M242.681 273.023C256.453 265.59 274.304 255.328 281.084 248.623C286.564 243.201 288.127 238.981 288.152 235.957L288.152 103.833C288.152 106.442 286.946 109.62 283.717 113.359C283.717 113.359 285.34 188.068 277.133 220.849C268.926 253.63 242.681 273.023 242.681 273.023Z" fill="black"/>
<path d="M361.729 56.0171L349.01 62.3139L362.723 69.1063V94.3663L369.868 84.4838L375.442 88.106V62.8022L361.729 56.0171Z" fill="black"/>
<path d="M363.292 55.2156L377.005 62.0007V89.4471L371.431 85.8323L364.286 95.7075V68.3047L350.573 61.5124L363.292 55.2156Z" fill="#80C4D3"/>
<path d="M363.292 55.2156L350.573 61.5124L364.286 68.3047L377.005 62.0007L363.292 55.2156Z" fill="white"/>
<path d="M439.249 189.286C458.774 189.286 474.601 181.754 474.601 172.463C474.601 163.171 458.774 155.639 439.249 155.639C419.725 155.639 403.897 163.171 403.897 172.463C403.897 181.754 419.725 189.286 439.249 189.286Z" fill="#E6E6E6"/>
<path d="M74.5042 287.705C92.4043 287.705 106.915 280.798 106.915 272.279C106.915 263.759 92.4043 256.853 74.5042 256.853C56.6042 256.853 42.0933 263.759 42.0933 272.279C42.0933 280.798 56.6042 287.705 74.5042 287.705Z" fill="#E6E6E6"/>
<path d="M315.141 317.363C333.767 317.363 348.867 310.173 348.867 301.304C348.867 292.435 333.767 285.245 315.141 285.245C296.515 285.245 281.415 292.435 281.415 301.304C281.415 310.173 296.515 317.363 315.141 317.363Z" fill="#E6E6E6"/>
<path d="M147.743 240.519C166.369 240.519 181.469 233.329 181.469 224.46C181.469 215.591 166.369 208.401 147.743 208.401C129.116 208.401 114.017 215.591 114.017 224.46C114.017 233.329 129.116 240.519 147.743 240.519Z" fill="#E6E6E6"/>
<path d="M465.467 52.6474L470.118 61.1605L462.885 67.3572L456.25 56.8622L465.467 52.6474Z" fill="#F28F8F"/>
<path d="M448.012 33.6752C452.627 33.6752 457.708 35.3946 459.454 39.0123L466.627 53.8653C466.627 53.8653 462.55 59.8352 456.082 59.4054L448.012 33.6752Z" fill="#02897A"/>
<path d="M465.108 62.4858C466.459 59.9785 466.794 59.8591 467.595 59.3098C468.396 58.7606 473.322 58.0323 475.366 57.8532C477.757 57.6502 478.63 58.092 477.96 60.1576C476.119 65.3672 473.864 70.4218 471.217 75.2733C470.572 76.121 470.452 76.909 467.738 77.1836C465.216 77.4224 462.048 77.5657 461.115 77.6135C460.183 77.6612 458.892 77.912 459.716 75.1658C460.784 72.0636 462.021 69.0224 463.423 66.0558C464.463 63.7753 465.108 62.4858 465.108 62.4858Z" fill="#37474F"/>
<path d="M411.238 146.959C410.042 146.362 409.361 147.819 408.321 148.989C407.427 149.85 406.73 150.892 406.276 152.046C406.025 153.419 407.281 155.628 408.667 156.822C410.054 158.015 411.656 158.887 412.158 161.514C412.288 162.719 412.756 163.863 413.509 164.814C414.262 165.765 415.27 166.484 416.414 166.887C419.403 168.176 423.408 167.758 424.783 166.887C426.385 165.848 424.915 164.702 422.667 161.478C419.726 157.275 417.431 154.314 417.431 150.338L411.238 146.959Z" fill="#263238"/>
<path d="M413.593 143.509L411.202 147.091C410.686 147.822 410.482 148.729 410.634 149.611C410.787 150.493 411.283 151.278 412.015 151.795L412.087 151.855C412.822 152.29 413.687 152.456 414.531 152.323C415.376 152.19 416.148 151.767 416.713 151.126L420.491 147.019L413.593 143.509Z" fill="#FFA8A7"/>
<path d="M457.995 74.4493C458.15 78.9625 456.871 97.1945 453.751 105.254C450.63 113.313 448.825 118.328 447.845 120.011C446.865 121.695 418.578 149.18 418.578 149.18C418.578 149.18 413.796 148.834 413.019 144.189C413.019 144.189 424.604 124.513 427.114 120.477C429.625 116.441 438.52 110.257 438.52 110.257L437.707 74.9627L457.995 74.4493Z" fill="#37474F"/>
<path d="M416.092 70.0556C416.092 69.2795 418.483 60.3605 419.678 56.2413L428.441 59.2501L426.385 65.7453L418.674 73.7092C417.857 73.5465 417.133 73.0768 416.653 72.397C416.172 71.7172 415.971 70.879 416.092 70.0556Z" fill="#FFA8A7"/>
<path d="M451.763 170.501L457.744 169.143L455.764 160.446L449.783 161.804L451.763 170.501Z" fill="#FFA8A7"/>
<path d="M457.995 74.4493L429.302 74.4494C428.675 78.6331 428.316 82.8523 428.226 87.0816C427.999 99.499 439.572 122.053 439.572 122.053C439.017 127.071 439.267 132.146 440.313 137.085C442.848 146.971 449.758 163.723 449.758 163.723C449.758 163.723 454.098 164.332 456.238 161.836C456.238 161.836 452.412 127.844 451.384 119.14C450.272 109.707 447.403 92.5023 447.403 92.5023C449.296 90.6175 451.013 88.5632 452.531 86.3652C455.193 82.8264 457.053 78.7526 457.983 74.4255" fill="#37474F"/>
<path d="M438.544 33.9257C433.044 35.251 425.548 36.9703 423.384 42.9163C421.22 48.8623 418.1 59.4051 418.1 59.4051C419.296 61.4946 425.931 63.2258 428.238 62.0199L429.314 58.438V74.4134C433.618 79.0938 448.61 81.2668 458.007 74.4134V44.564C458.007 39.7881 455.353 34.057 448.024 33.6391L438.544 33.9257Z" fill="#02897A"/>
<path d="M429.314 58.4739L432.076 49.7937L429.314 62.3544V58.4739Z" fill="#E0E0E0"/>
<path d="M436.475 9.53285C435.982 9.47803 435.483 9.53547 435.015 9.7009C434.547 9.86633 434.122 10.1354 433.774 10.488C432.578 11.682 432.853 13.867 433.774 18.9175L437.36 19.3234L436.475 9.53285Z" fill="#263238"/>
<path d="M457.409 8.07615C458.163 8.08404 458.911 7.94198 459.609 7.65825C460.709 7.02544 460.996 8.27911 460.386 9.36563C459.988 10.1442 459.396 10.8078 458.668 11.2927C457.939 11.7777 457.098 12.068 456.226 12.1357C456.226 11.9804 455.197 9.32981 455.197 9.32981L457.409 8.07615Z" fill="#263238"/>
<path d="M438.161 19.3236C437.635 19.646 436.87 18.6192 436.212 17.9386C435.955 17.642 435.626 17.4159 435.257 17.2817C434.888 17.1475 434.49 17.1097 434.102 17.1719C433.715 17.2341 433.349 17.3942 433.04 17.637C432.732 17.8798 432.49 18.1974 432.339 18.5595C431.251 20.8519 433.726 23.9085 435.184 24.9114C435.588 25.2646 436.095 25.4803 436.63 25.5275C437.165 25.5748 437.701 25.451 438.161 25.1741L438.544 33.9498C439.188 35.3555 440.17 36.5804 441.403 37.5156C442.636 38.4509 444.08 39.0675 445.609 39.3107C450.774 40.0032 449.71 35.7288 448 33.6752V30.4873C449.293 30.7598 450.621 30.8243 451.934 30.6783C452.603 30.4992 454.205 28.565 455.245 26.3919C457.451 22.0409 457.941 17.0218 456.62 12.3269C454.767 4.47057 446.315 4.23177 441.281 7.3958C436.248 10.5598 438.161 19.3236 438.161 19.3236Z" fill="#FFA8A7"/>
<path d="M438.161 20.219C437.898 20.219 436.882 18.5356 436.212 17.9386C435.292 17.1028 436.475 9.58068 436.475 9.58068C436.221 8.77219 436.171 7.91378 436.327 7.08098C436.483 6.24818 436.842 5.46651 437.372 4.80479C439.189 2.89443 442.704 3.21681 445.274 3.13323C448.437 3.14564 451.569 2.516 454.48 1.28256C458.138 -0.305423 458.413 -0.484519 458.856 1.11541C459.209 2.43761 459.253 3.82337 458.983 5.16515C458.714 6.50693 458.138 7.76864 457.302 8.85236L456.106 10.7866C456.106 10.7866 454.994 11.7179 451.587 12.1358C448.18 12.5537 442.369 10.715 441.64 10.6194C440.648 10.4881 440.444 11.4433 439.906 14.0581C439.452 16.3147 439.07 20.2071 438.161 20.219Z" fill="#263238"/>
<path d="M436.487 10.1299L433.259 8.39866C433.363 8.18815 433.506 8.00007 433.683 7.84523C433.859 7.69039 434.064 7.57185 434.286 7.4964C434.508 7.42096 434.743 7.39011 434.977 7.40562C435.211 7.42113 435.44 7.48268 435.65 7.58677C436.094 7.81888 436.429 8.21421 436.585 8.68896C436.741 9.1637 436.706 9.68055 436.487 10.1299Z" fill="#263238"/>
<path d="M448 30.4873C445.801 30.0661 443.644 29.4467 441.556 28.6367C440.578 28.1209 439.776 27.3274 439.249 26.3562C439.501 27.3311 439.949 28.2449 440.564 29.0426C441.76 30.6067 448 31.7529 448 31.7529L448 30.4873Z" fill="#F28F8F"/>
<path d="M448.156 19.1565C448.159 19.4141 448.06 19.6626 447.881 19.8481C447.702 20.0336 447.457 20.1412 447.199 20.1475C447.071 20.1444 446.944 20.116 446.826 20.0639C446.708 20.0118 446.602 19.937 446.513 19.8439C446.424 19.7507 446.355 19.6411 446.308 19.5211C446.262 19.4011 446.24 19.2731 446.243 19.1445C446.24 18.8869 446.338 18.6384 446.517 18.4528C446.696 18.2673 446.941 18.1598 447.199 18.1535C447.328 18.1566 447.455 18.185 447.573 18.2371C447.69 18.2892 447.797 18.3639 447.886 18.4571C447.974 18.5502 448.044 18.6599 448.09 18.7799C448.137 18.8999 448.159 19.0279 448.156 19.1565Z" fill="#263238"/>
<path d="M447.14 15.5387L445.095 16.7327C445.017 16.5942 444.968 16.4418 444.95 16.2841C444.932 16.1265 444.946 15.9669 444.991 15.8146C445.035 15.6623 445.11 15.5204 445.21 15.3972C445.31 15.2739 445.433 15.1719 445.573 15.0969C445.842 14.9595 446.153 14.9286 446.443 15.0106C446.734 15.0925 446.983 15.2812 447.14 15.5387Z" fill="#263238"/>
<path d="M447.57 25.568L449.758 26.3918C449.65 26.6782 449.436 26.9123 449.16 27.0456C448.884 27.1789 448.567 27.2013 448.275 27.1082C448.127 27.0537 447.992 26.9706 447.876 26.8636C447.761 26.7565 447.667 26.6277 447.602 26.4846C447.536 26.3415 447.5 26.1868 447.494 26.0295C447.489 25.8721 447.514 25.7153 447.57 25.568Z" fill="#F28F8F"/>
<path d="M456.692 16.3386L454.827 14.9058C455.014 14.6641 455.287 14.5034 455.59 14.4567C455.892 14.4101 456.201 14.4811 456.453 14.6551C456.58 14.7492 456.687 14.8677 456.768 15.0037C456.849 15.1396 456.903 15.2902 456.925 15.4469C456.947 15.6035 456.938 15.763 456.898 15.9161C456.858 16.0692 456.788 16.2128 456.692 16.3386Z" fill="#263238"/>
<path d="M456.118 18.8817C456.121 19.1394 456.023 19.3879 455.844 19.5734C455.664 19.7589 455.419 19.8665 455.162 19.8727C455.033 19.8696 454.906 19.8412 454.788 19.7892C454.67 19.7371 454.564 19.6623 454.475 19.5692C454.386 19.476 454.317 19.3663 454.271 19.2463C454.224 19.1263 454.202 18.9984 454.205 18.8698C454.202 18.6122 454.3 18.3637 454.48 18.1781C454.659 17.9926 454.904 17.8851 455.162 17.8788C455.421 17.8881 455.666 17.9983 455.844 18.1857C456.023 18.3731 456.121 18.6229 456.118 18.8817Z" fill="#263238"/>
<path d="M451.611 18.7624L450.714 24.4457L453.858 24.0756L451.611 18.7624Z" fill="#F28F8F"/>
<path d="M457.062 166.242L456.871 165.382C457.493 165.502 460.183 169.955 462.849 171.889C465.766 174.003 468.288 175.256 469.592 176.212C471.337 177.489 468.814 180.104 464.523 180.343C462.394 180.45 458.545 179.805 457.349 178.671C456.154 177.537 455.293 175.662 454.337 174.85C453.38 174.039 451.479 173.322 450.822 172.283C450.47 171.252 450.343 170.156 450.451 169.072C450.451 167.949 450.535 166.684 450.917 166.743L451.061 167.388C452.169 167.953 453.403 168.228 454.647 168.188C455.688 168.14 457.565 167.914 457.062 166.242Z" fill="#263238"/>
<path d="M450.642 113.361C450.642 113.361 448.096 95.296 447.414 92.5021C449.46 91.3864 451.363 90.0273 453.081 88.4545C451.896 90.148 450.602 91.7633 449.208 93.2901L450.642 113.361Z" fill="#263238"/>
<path d="M435.28 112.728C435.28 112.728 438.34 120.334 439.584 122.017C439.584 122.017 439.273 127.82 439.309 128.99L437.707 130.387C437.665 127.762 437.905 125.14 438.424 122.566C437.019 119.412 435.964 116.113 435.28 112.728Z" fill="#263238"/>
<path d="M426.421 65.7456C426.421 65.7456 450.535 68.3246 453.368 67.4529C456.202 66.5813 460.003 63.7755 462 62.5815C463.997 61.3876 465.515 61.3159 465.515 61.8055C465.515 62.295 463.769 64.9575 463.375 66.0679C462.98 67.1783 465.252 67.1783 468.253 66.4858C471.253 65.7933 472.449 64.0979 473.226 65.0769C474.003 66.056 471.564 71.0468 466.591 72.9214C461.617 74.7959 457.923 73.5422 453.811 73.7213C449.698 73.9004 424.365 75.5123 418.662 73.7213C418.511 72.8085 418.615 71.8718 418.964 71.0143C419.312 70.1569 419.89 69.4121 420.635 68.8618C422.358 67.4806 424.319 66.4246 426.421 65.7456Z" fill="#FFA8A7"/>
<path d="M292.737 180.784C292.796 180.008 294.267 171.65 295.271 166.97L305.11 169.979L303.532 176.534L295.355 184.438C294.531 184.283 293.799 183.817 293.311 183.136C292.823 182.456 292.617 181.613 292.737 180.784Z" fill="#FFA8A7"/>
<path d="M314.304 110.03H319.086C322.615 110.03 326 111.43 328.495 113.922C330.99 116.414 332.392 119.794 332.392 123.319V157.18H300.998V123.319C300.998 119.794 302.399 116.414 304.895 113.922C307.39 111.43 310.775 110.03 314.304 110.03Z" fill="#263238"/>
<path d="M340.331 163.221L344.981 171.734L337.736 177.919L331.113 167.424L340.331 163.221Z" fill="#F28F8F"/>
<path d="M322.876 144.237C327.491 144.237 332.572 145.956 334.317 149.574L341.49 164.427C341.49 164.427 337.414 170.397 330.946 169.979L322.876 144.237Z" fill="#455A64"/>
<path d="M326.606 291.538C328.194 293.659 329.979 295.626 331.938 297.412C332.252 297.664 332.502 297.987 332.667 298.355C332.871 298.976 333.134 300.468 330.372 301.077C328.972 301.384 327.522 301.386 326.122 301.083C324.721 300.78 323.402 300.18 322.254 299.322C320.234 297.698 320.473 294.845 318.608 292.97C317.221 291.597 315.344 291.06 314.304 289.388C313.575 288.194 313.969 286.774 314.627 285.018C315.284 283.263 315.751 281.663 316.384 281.89L316.169 282.774C316.826 284.171 320.951 285.054 322.971 284.386C324.059 286.831 325.272 289.218 326.606 291.538Z" fill="#263238"/>
<path d="M328.232 293.591C327.67 292.934 327.12 292.266 326.606 291.538C325.549 289.779 324.602 287.957 323.773 286.081C323.234 284.963 323.14 283.683 323.51 282.499L324.872 277.902L317.699 276.255L316.145 282.69C315.81 284.159 316.874 285.615 318.823 287.741C320.772 289.866 323.019 294.546 324.801 295.872C326.582 297.197 328.041 297.328 328.949 296.875C329.858 296.421 330.085 296.003 328.232 293.591Z" fill="#FFA8A7"/>
<path d="M307.31 295.585V294.57C307.716 295.764 309.558 300.85 312.355 303.406C314.591 305.423 317.627 307.775 318.393 310.032C319.158 312.289 314.172 313.172 312.092 312.802C309.316 312.337 306.771 310.974 304.847 308.922C303.652 307.453 302.887 305.71 302.026 304.552C301.165 303.394 299.204 302.164 298.75 300.779C298.606 299.531 298.741 298.267 299.145 297.077C299.479 295.883 299.826 294.463 300.256 294.57V295.406C301.28 296.202 302.546 296.624 303.843 296.6C304.823 296.6 307.322 296.373 307.31 295.585Z" fill="#263238"/>
<path d="M314.376 305.185L312.355 303.394C310.481 301.411 309.019 299.078 308.051 296.528C307.562 295.352 307.31 294.09 307.31 292.815V288.792H300.256V295.514C300.591 296.982 303.843 300.875 305.672 303.418C307.172 305.603 309.459 307.126 312.056 307.668C314.746 308.026 316.145 307.191 314.376 305.185Z" fill="#FFA8A7"/>
<path d="M301.655 186.026C296.192 197.966 301.858 240.006 301.858 240.006C301.691 241.952 299.467 245.76 298.654 254.333C297.674 264.41 300.185 289.699 300.185 289.699C301.265 290.332 302.484 290.689 303.735 290.739C304.987 290.789 306.231 290.53 307.358 289.985C307.358 289.985 314.089 251.886 315.356 241.868L319.397 209.726L325.375 241.092C323.775 243.55 322.452 246.177 321.429 248.925C320.007 253.354 317.125 278.595 317.125 278.595C318.098 279.482 319.26 280.136 320.524 280.507C321.788 280.877 323.12 280.954 324.418 280.732C324.418 280.732 338.227 246.107 338.848 239.038C339.219 234.8 333.026 184.33 333.026 184.33L301.655 186.026Z" fill="#37474F"/>
<path d="M319.349 209.679L320.306 202.777C320.306 202.777 327.825 201.225 331.233 198.002C328.88 200.756 325.803 202.799 322.35 203.9L321.346 210.562L322.541 226L319.349 209.679Z" fill="#263238"/>
<path d="M311.363 144.559C309.35 145.048 307.472 145.982 305.869 147.292C304.265 148.602 302.976 150.255 302.098 152.129C300.807 154.978 300.687 158.219 301.763 161.156L306.581 175.28C306.581 175.28 304.297 180.808 301.631 186.026C313.909 192.867 329.224 189.274 332.918 184.283C333.074 183.22 332.859 178.444 333.158 173.024C333.468 167.233 334.269 160.69 333.361 157.12C331.663 150.469 328.495 144.237 322.194 144.237L311.363 144.559Z" fill="#F03E3D"/>
<path d="M309.486 144.559C305.302 145.144 299.157 145.992 297.029 155.926C294.9 165.86 294.267 169.502 294.267 169.502C295.631 170.839 297.257 171.881 299.042 172.563C300.828 173.245 302.734 173.552 304.644 173.466L306.808 165.824L309.486 144.559Z" fill="#455A64"/>
<path d="M311.865 152.941C311.143 152.941 310.428 152.799 309.76 152.523C309.093 152.247 308.487 151.843 307.976 151.333C307.466 150.823 307.061 150.217 306.784 149.551C306.508 148.884 306.366 148.17 306.366 147.449V131.462H311.865V152.941Z" fill="#263238"/>
<path d="M327.24 116.369C328.901 117.349 330.946 121.515 330.742 130.243C330.575 137.646 328.172 139.485 326.965 140.01C325.757 140.536 323.438 140.213 321.178 139.831V144.273C321.178 144.273 324.299 147.855 324.107 149.944C323.916 152.033 319.588 152.463 316.659 150.469C314.772 149.103 313.152 147.403 311.877 145.455V134.709C311.639 135 311.345 135.241 311.013 135.418C310.681 135.595 310.317 135.705 309.942 135.74C309.568 135.776 309.19 135.737 308.83 135.625C308.471 135.514 308.137 135.332 307.848 135.091C305.349 133.431 305.254 129.336 306.712 127.927C308.171 126.518 311.291 126.924 311.877 128.954C314.832 128.824 317.708 127.963 320.246 126.447C322.127 125.44 323.743 124.002 324.959 122.25C326.175 120.498 326.956 118.482 327.24 116.369Z" fill="#FFA8A7"/>
<path d="M322.469 128.393C322.471 128.576 322.42 128.755 322.321 128.908C322.222 129.062 322.079 129.183 321.912 129.256C321.745 129.33 321.559 129.352 321.379 129.322C321.199 129.291 321.032 129.208 320.898 129.083C320.765 128.958 320.672 128.796 320.629 128.619C320.587 128.441 320.598 128.255 320.661 128.083C320.724 127.912 320.836 127.763 320.983 127.654C321.131 127.546 321.306 127.483 321.489 127.474C321.614 127.469 321.739 127.489 321.856 127.533C321.973 127.576 322.08 127.643 322.172 127.729C322.263 127.814 322.336 127.917 322.387 128.031C322.438 128.145 322.466 128.268 322.469 128.393Z" fill="#263238"/>
<path d="M322.72 134.661L324.884 135.354C324.846 135.499 324.778 135.635 324.686 135.754C324.593 135.873 324.477 135.971 324.345 136.044C324.214 136.116 324.068 136.161 323.918 136.176C323.769 136.191 323.617 136.175 323.474 136.13C323.183 136.029 322.942 135.82 322.802 135.546C322.662 135.273 322.633 134.956 322.72 134.661Z" fill="#F28F8F"/>
<path d="M330.109 125.527L328.232 124.226C328.311 124.099 328.415 123.989 328.537 123.903C328.66 123.818 328.799 123.758 328.945 123.728C329.092 123.697 329.243 123.697 329.39 123.728C329.537 123.758 329.675 123.818 329.798 123.903C330.05 124.082 330.223 124.35 330.28 124.653C330.338 124.956 330.277 125.269 330.109 125.527Z" fill="#263238"/>
<path d="M329.678 127.712C329.695 127.964 329.611 128.212 329.445 128.402C329.28 128.592 329.045 128.709 328.794 128.727C328.543 128.731 328.301 128.637 328.118 128.465C327.935 128.294 327.826 128.058 327.813 127.808C327.807 127.686 327.825 127.563 327.866 127.448C327.907 127.332 327.971 127.226 328.053 127.135C328.135 127.044 328.234 126.971 328.345 126.918C328.456 126.865 328.576 126.835 328.698 126.829C328.82 126.823 328.943 126.84 329.059 126.881C329.174 126.922 329.28 126.986 329.371 127.068C329.462 127.15 329.536 127.249 329.589 127.36C329.642 127.47 329.672 127.59 329.678 127.712Z" fill="#263238"/>
<path d="M325.279 127.187L325.434 132.787L328.387 131.867L325.279 127.187Z" fill="#F28F8F"/>
<path d="M321.178 139.831C318.787 139.521 313.885 138.112 313.12 136.177C313.425 137.159 314.026 138.022 314.842 138.649C316.301 139.903 321.178 141.323 321.178 141.323L321.178 139.831Z" fill="#F28F8F"/>
<path d="M339.96 173.047C341.311 170.54 341.646 170.433 342.459 169.883C343.272 169.334 348.185 168.594 350.23 168.415C352.621 168.212 353.494 168.654 352.824 170.731C350.96 175.936 348.689 180.986 346.033 185.835C345.388 186.695 345.256 187.483 342.554 187.745C339.853 188.008 336.852 188.127 335.919 188.187C334.987 188.247 333.696 188.474 334.532 185.727C335.598 182.626 336.832 179.585 338.227 176.617C339.315 174.361 339.96 173.047 339.96 173.047Z" fill="#37474F"/>
<path d="M303.532 176.582C303.532 176.582 325.398 178.886 328.232 178.015C331.065 177.143 334.867 174.313 336.911 173.143C338.956 171.973 340.426 171.878 340.426 172.355C340.426 172.833 338.681 175.519 338.274 176.618C337.868 177.716 340.163 177.728 343.152 177.035C346.141 176.343 347.348 174.648 348.137 175.627C348.927 176.606 346.476 181.596 341.502 183.471C336.529 185.346 332.835 184.104 328.722 184.271C324.609 184.438 301.057 186.277 295.355 184.486C295.204 183.573 295.308 182.636 295.656 181.779C296.004 180.922 296.583 180.177 297.327 179.626C299.171 178.208 301.281 177.173 303.532 176.582Z" fill="#FFA8A7"/>
<path d="M305.11 170.97C306.048 168.432 306.847 165.846 307.501 163.221C307.501 163.221 307.107 168.988 305.481 172.08L305.11 170.97Z" fill="#37474F"/>
<path d="M128.184 99.9644L124.298 108.346L131.531 114.531L137.784 103.988L128.184 99.9644Z" fill="#F28F8F"/>
<path d="M146.021 80.7891C141.406 80.7891 136.325 82.5204 134.58 86.1262C132.834 89.732 127.406 100.991 127.406 100.991C127.406 100.991 131.483 106.961 137.951 106.531L146.021 80.7891Z" fill="#37474F"/>
<path d="M166.034 213.786H159.65V223.063H166.034V213.786Z" fill="#FFA8A7"/>
<path d="M143.588 202.307L137.208 202.527L137.527 211.798L143.908 211.579L143.588 202.307Z" fill="#FFA8A7"/>
<path d="M165.604 123.211C165.604 129.3 166.393 168.654 166.393 168.654C166.548 170.397 168.186 173.633 167.827 180.355C167.349 189.489 166.56 214.861 166.56 214.861C166.56 214.861 163.571 217.822 159.387 214.861C159.387 214.861 153.6 180.378 152.465 171.328C151.46 163.436 149.775 141.98 149.775 141.98L143.857 167.233C143.857 167.233 144.897 173.203 145.136 177.358C145.375 181.513 144.048 205.762 144.048 205.762C143.014 206.407 141.829 206.77 140.61 206.817C139.392 206.863 138.182 206.59 137.102 206.025C137.102 206.025 131.985 170.66 131.328 166.875C130.67 163.09 135.811 123.211 135.811 123.211H165.604Z" fill="#37474F"/>
<path d="M156.004 81.0757H156.099C158.838 81.7634 161.267 83.3466 163.001 85.5731C164.734 87.7996 165.671 90.5414 165.663 93.3616V123.211C161.192 128.07 145.602 130.375 135.775 123.211V92.1677C135.775 87.2127 138.537 81.2428 146.152 80.801L156.004 81.0757Z" fill="#80C4D3"/>
<path d="M158.156 55.6798C158.668 55.6226 159.188 55.682 159.674 55.8536C160.161 56.0252 160.602 56.3046 160.965 56.6708C162.161 57.8648 161.921 60.193 160.965 65.4346L157.235 65.8644L158.156 55.6798Z" fill="#263238"/>
<path d="M136.385 54.2233C135.584 54.2255 134.792 54.0672 134.054 53.7576C132.858 53.1009 132.607 54.4024 133.229 55.5247C133.645 56.335 134.263 57.025 135.023 57.5287C135.783 58.0325 136.659 58.3333 137.568 58.4022C137.568 58.247 138.632 55.5008 138.632 55.5008L136.385 54.2233Z" fill="#263238"/>
<path d="M156.398 65.8645C156.96 66.1988 157.749 65.1362 158.43 64.4198C158.697 64.1093 159.04 63.8725 159.425 63.7323C159.81 63.592 160.225 63.553 160.629 63.6189C161.034 63.6849 161.415 63.8535 161.735 64.1088C162.056 64.364 162.305 64.6973 162.459 65.0765C163.655 67.4644 161.013 70.6404 159.506 71.6792C159.084 72.0469 158.555 72.2716 157.997 72.3209C157.438 72.3702 156.879 72.2417 156.398 71.9538L156.004 81.0757C155.334 82.5391 154.312 83.8143 153.029 84.7873C151.746 85.7602 150.242 86.4007 148.651 86.6516C143.283 87.38 144.395 82.9622 146.152 80.7892V77.47C144.814 77.7601 143.437 77.8327 142.076 77.6849C141.37 77.4938 139.684 75.476 138.62 73.2194C137.425 70.6882 135.404 66.1988 137.198 58.5932C139.123 50.4145 147.958 50.1638 153.146 53.4591C158.335 56.7545 156.398 65.8645 156.398 65.8645Z" fill="#FFA8A7"/>
<path d="M156.398 66.7959C156.685 66.7959 157.737 65.0527 158.43 64.4079C159.387 63.5363 158.156 55.6681 158.156 55.6681C158.156 55.6681 159.124 52.695 157.235 50.713C155.346 48.731 151.676 49.0654 148.998 48.9699C145.711 48.99 142.456 48.3357 139.433 47.0476C135.632 45.3999 135.345 45.2088 134.878 46.8684C134.51 48.2434 134.463 49.6849 134.743 51.0806C135.023 52.4764 135.622 53.7888 136.492 54.9158L138.381 55.6083C138.381 55.6083 139.398 56.5158 142.948 56.9456C146.223 57.1877 149.512 57.1278 152.776 56.7665C153.804 56.6232 153.971 57.6142 154.581 60.3484C155.059 62.7364 155.466 66.784 156.398 66.7959Z" fill="#263238"/>
<path d="M158.144 56.3007L161.503 54.4977C161.396 54.2723 161.245 54.0708 161.058 53.9056C160.871 53.7404 160.652 53.6148 160.415 53.5367C160.178 53.4585 159.928 53.4293 159.679 53.4508C159.43 53.4724 159.189 53.5442 158.969 53.662C158.518 53.9122 158.182 54.3256 158.028 54.8167C157.875 55.3078 157.916 55.8391 158.144 56.3007Z" fill="#263238"/>
<path d="M146.164 77.4699C148.455 77.0402 150.701 76.3966 152.871 75.5476C153.893 75.0126 154.727 74.1797 155.262 73.1597C155.001 74.1732 154.538 75.1236 153.899 75.9536C152.632 77.5774 146.152 78.7714 146.152 78.7714L146.164 77.4699Z" fill="#F28F8F"/>
<path d="M147.36 64.6229C147.365 64.8207 147.428 65.0127 147.541 65.1747C147.655 65.3367 147.814 65.4614 147.999 65.5333C148.183 65.6052 148.385 65.621 148.579 65.5787C148.772 65.5363 148.949 65.4378 149.086 65.2954C149.224 65.1531 149.316 64.9733 149.352 64.7786C149.387 64.584 149.364 64.3832 149.286 64.2016C149.207 64.0199 149.077 63.8655 148.911 63.7578C148.745 63.65 148.55 63.5938 148.352 63.5961C148.085 63.6024 147.83 63.7137 147.645 63.9059C147.459 64.0981 147.357 64.3558 147.36 64.6229Z" fill="#263238"/>
<path d="M148.412 60.8739L150.552 62.0678C150.7 61.7745 150.731 61.4357 150.638 61.1206C150.544 60.8055 150.334 60.5379 150.05 60.3724C149.91 60.2957 149.756 60.2479 149.597 60.2317C149.438 60.2155 149.278 60.2312 149.125 60.278C148.972 60.3247 148.831 60.4015 148.708 60.5038C148.586 60.6062 148.485 60.732 148.412 60.8739Z" fill="#263238"/>
<path d="M147.432 71.3685L145.16 72.2281C145.21 72.3801 145.29 72.5205 145.395 72.6411C145.5 72.7617 145.628 72.86 145.772 72.9301C145.916 73.0003 146.072 73.0409 146.232 73.0495C146.392 73.0581 146.552 73.0346 146.702 72.9803C147.01 72.86 147.259 72.624 147.396 72.3228C147.532 72.0216 147.545 71.679 147.432 71.3685Z" fill="#F28F8F"/>
<path d="M138.477 61.6974L140.402 60.193C140.309 60.0624 140.191 59.9516 140.055 59.8673C139.919 59.7831 139.767 59.727 139.609 59.7025C139.45 59.678 139.289 59.6855 139.133 59.7247C138.978 59.7638 138.832 59.8338 138.704 59.9304C138.446 60.1391 138.278 60.4393 138.236 60.7684C138.194 61.0976 138.28 61.4303 138.477 61.6974Z" fill="#263238"/>
<path d="M139.075 64.3482C139.072 64.6153 139.174 64.873 139.36 65.0652C139.545 65.2574 139.8 65.3688 140.067 65.375C140.338 65.3688 140.595 65.2562 140.783 65.0617C140.971 64.8672 141.074 64.6066 141.071 64.3363C141.087 64.1962 141.072 64.0544 141.029 63.9203C140.986 63.7861 140.915 63.6625 140.821 63.5576C140.727 63.4526 140.611 63.3687 140.482 63.3112C140.354 63.2537 140.214 63.2241 140.073 63.2241C139.932 63.2241 139.792 63.2537 139.664 63.3112C139.535 63.3687 139.419 63.4526 139.325 63.5576C139.231 63.6625 139.16 63.7861 139.117 63.9203C139.074 64.0544 139.059 64.1962 139.075 64.3363V64.3482Z" fill="#263238"/>
<path d="M144.156 63.4048L143.821 69.3866L140.701 68.324L144.156 63.4048Z" fill="#F28F8F"/>
<path d="M159.65 219.911V218.992C159.04 219.254 157.617 224.663 155.095 226.967C153.074 228.794 150.313 230.919 149.631 232.937C148.95 234.955 153.457 236.233 155.334 235.898C157.522 235.516 161.312 233.976 162.256 232.555C163.201 231.134 163.655 229.033 164.42 227.982C165.185 226.932 166.979 225.773 167.397 224.568C167.52 223.439 167.393 222.298 167.026 221.224C166.727 220.102 166.417 218.836 166.034 218.968C166.034 219.099 166.034 219.66 166.034 219.66C165.126 220.376 163.998 220.755 162.842 220.735C161.921 220.806 159.638 220.627 159.65 219.911Z" fill="#263238"/>
<path d="M137.473 209.822C137.138 209.822 136.863 210.3 136.134 211.088C135.045 212.194 133.776 213.106 132.38 213.786C129.989 214.98 125.35 216.819 123.246 217.762C121.943 218.359 122.05 219.935 123.354 220.843C124.657 221.75 127.992 222.395 131.925 221.511C134.065 221.034 136.863 219.064 138.62 219.123C140.378 219.183 143.69 219.207 144.993 218.311C146.296 217.416 145.782 215.494 145.411 213.846C145.04 212.198 144.431 209.309 143.833 209.428V209.989C143.068 211.183 139.158 211.625 137.473 210.777V209.822Z" fill="#263238"/>
<path d="M128.937 109.612C127.586 107.092 127.251 106.985 126.438 106.436C125.625 105.886 120.711 105.146 118.667 104.979C116.276 104.776 115.403 105.218 116.073 107.283C117.924 112.489 120.179 117.543 122.816 122.399C123.461 123.247 123.593 124.035 126.295 124.298C128.996 124.56 131.997 124.68 132.93 124.739C133.862 124.799 135.153 125.026 134.317 122.28C133.249 119.179 132.015 116.138 130.622 113.17C129.642 110.913 128.937 109.612 128.937 109.612Z" fill="#37474F"/>
<path d="M177.941 117.181C177.882 116.393 175.55 107.486 174.355 103.367L165.604 106.376L167.66 112.859L175.359 120.823C176.175 120.663 176.899 120.196 177.379 119.518C177.86 118.84 178.061 118.003 177.941 117.181Z" fill="#FFA8A7"/>
<path d="M167.624 112.859C167.624 112.859 143.498 115.438 140.665 114.567C137.831 113.695 134.03 110.865 131.985 109.695C129.941 108.525 128.47 108.43 128.47 108.919C128.47 109.409 130.216 112.071 130.622 113.17C131.029 114.268 128.733 114.28 125.745 113.588C122.756 112.895 121.548 111.2 120.759 112.179C119.97 113.158 122.421 118.149 127.394 120.023C132.368 121.898 136.062 120.656 140.175 120.823C144.287 120.99 169.621 122.614 175.323 120.823C175.475 119.912 175.37 118.977 175.022 118.121C174.674 117.266 174.096 116.523 173.351 115.976C171.643 114.604 169.704 113.549 167.624 112.859Z" fill="#FFA8A7"/>
<path d="M158.024 81.7562C161.814 83.0099 169.334 83.6427 171.761 91.8334C174.188 100.024 175.407 105.337 175.407 105.337C173.972 107.248 168.234 109.456 165.604 108.633L158.024 81.7562Z" fill="#455A64"/>
<path d="M165.604 108.633L163.009 99.439L165.604 112.382L165.604 108.633Z" fill="#37474F"/>
<path d="M101.632 139.72L89.3957 137.984C89.3334 137.975 89.2778 137.954 89.234 137.921C89.1903 137.889 89.1599 137.847 89.1457 137.8C89.1314 137.752 89.1339 137.7 89.1527 137.649C89.1715 137.598 89.2062 137.55 89.2534 137.508L99.1778 129.255L101.632 139.72Z" fill="black"/>
<path d="M89.906 137.832L101.492 139.41L97.0206 131.235L89.8385 136.447L89.906 137.832Z" fill="#EBEBEB"/>
<path d="M110.115 132.335L101.632 139.72L95.2968 129.047C95.1955 128.877 95.1703 128.678 95.2248 128.477C95.2792 128.276 95.4105 128.082 95.6009 127.922L108.587 116.959C108.679 116.881 108.791 116.819 108.913 116.777C109.035 116.736 109.163 116.717 109.287 116.721C109.41 116.726 109.525 116.754 109.622 116.803C109.719 116.853 109.795 116.922 109.844 117.005L115.687 127.07L110.115 132.335Z" fill="#FF725E"/>
<path d="M89.7504 135.063L101.053 138.662L95.9171 130.07L89.7504 135.063Z" fill="#EBEBEB"/>
<path d="M95.9171 130.07C95.8707 130.094 95.8282 130.122 95.7905 130.154L95.4525 130.41L94.1777 131.41C93.0736 132.298 91.5283 133.533 89.6775 135.012L89.5634 135.104L89.6965 135.145L97.0395 137.498L100.991 138.75L101.098 138.567C97.8652 137.945 95.065 137.403 93.044 137.011L90.6911 136.579L90.0615 136.473C89.9894 136.457 89.9144 136.447 89.8375 136.443C89.8375 136.443 89.9032 136.47 90.0448 136.505L90.6627 136.642L92.9801 137.131L101.002 138.754L101.115 138.57L97.1725 137.311L89.8059 134.985L89.8441 135.113C91.6682 133.616 93.2179 132.359 94.2829 131.464L95.5172 130.433L95.8343 130.16C95.8863 130.106 95.923 130.072 95.9171 130.07Z" fill="#263238"/>
<path d="M100.04 128.978C100.212 128.818 107.621 122.486 107.621 122.486L111.022 128.185L103.388 134.921L100.04 128.978Z" fill="white"/>
<path d="M98.4147 169.394C100.71 168.737 104.177 160.212 106.783 150.541C109.39 140.87 110.765 138.733 110.848 135.688C110.932 132.643 110.717 128.643 110.717 128.643L106.174 135.27C105.977 133.992 105.573 132.754 104.978 131.605C104.392 130.411 103.292 129.467 102.396 130.184C101.918 130.566 103.185 132.202 102.91 135.855C102.887 137.311 103.032 138.766 103.34 140.189L94.8998 160.606L98.4147 169.394Z" fill="#FFA8A7"/>
<path d="M64.4496 127.056C61.7835 126.303 59.524 127.724 58.2687 131.963C56.0682 139.943 54.4696 148.077 53.4865 156.296C53.1279 159.245 52.7214 162.827 55.5428 163.102C57.6948 163.317 63.9116 162.123 64.9995 161.048C66.4581 159.639 66.195 153.956 66.195 153.956H62.9671C62.9671 153.956 63.6605 149.478 63.8638 148.117C64.5811 143.544 65.6451 137.778 65.6451 137.778L64.4496 127.056Z" fill="#F28F8F"/>
<path d="M80.0991 122.865L79.0112 132.428L69.5665 133.527L70.9294 120.835L80.0991 122.865Z" fill="#FFA8A7"/>
<path d="M59.8827 108.907C60.6598 100.072 65.4539 96.4422 69.16 95.5587C76.6441 93.8035 84.0325 96.3109 87.093 101.529C87.7935 103.162 88.1547 104.921 88.1547 106.698C88.1547 108.476 87.7935 110.235 87.093 111.868C85.4671 115.57 59.9186 108.883 59.9186 108.883" fill="#263238"/>
<path d="M87.5592 113.659C87.5592 113.659 88.9102 117.301 88.5515 117.576C87.9878 117.778 87.3934 117.883 86.7941 117.886L87.5592 113.659Z" fill="#FFA8A7"/>
<path d="M83.5302 102.149C85.3116 103.678 88.3123 106.448 87.5113 114.089C86.6266 121.993 84.7138 124.131 83.4226 124.895C82.5618 125.408 78.7481 124.513 76.9787 123.474C74.7789 122.172 69.9011 118.817 68.4187 114.292C66.6613 108.967 67.5459 102.615 71.3956 100.955C73.3543 100.114 75.4948 99.7819 77.617 99.9907C79.7391 100.2 81.7735 100.942 83.5302 102.149Z" fill="#FFA8A7"/>
<path d="M85.73 102.352C85.7682 104.465 85.3291 106.56 84.4453 108.48C83.5615 110.401 82.2558 112.097 80.6251 113.444C80.6251 113.444 79.5133 110.567 77.0385 111.223C74.5638 111.88 74.6475 115.14 76.4168 116.907C76.8756 117.412 77.4691 117.776 78.1278 117.955C78.7864 118.135 79.4827 118.123 80.1349 117.922C79.7821 120.18 78.7235 122.27 77.1102 123.892C74.5358 124.483 71.8466 124.337 69.3512 123.471C66.8559 122.605 64.6556 121.054 63.003 118.996C57.5394 112.441 59.1533 102.03 67.6894 98.9613C70.7076 97.7518 74.0089 97.4284 77.2049 98.0291C80.4009 98.6298 83.3586 100.13 85.73 102.352Z" fill="#263238"/>
<path d="M68.4307 266.751L72.5075 272.41C70.6504 273.249 68.6272 273.657 66.5896 273.604C62.9432 273.747 61.939 272.553 61.8075 272.267C61.1858 270.941 62.1542 268.565 62.4172 266.524L68.4307 266.751Z" fill="#263238"/>
<path d="M72.2564 269.676C72.2564 269.676 77.1939 269.354 80.6251 268.924C84.0563 268.494 86.7462 270.118 85.9452 271.562C85.1442 273.007 83.2553 274.141 80.3262 275.144C77.8275 275.992 74.8148 276.601 72.1966 277.377C69.5784 278.153 67.797 279.108 66.2787 278.571C64.581 277.986 63.8876 277.306 63.9952 276.076C64.3656 274.322 64.8244 272.589 65.3701 270.882L72.2564 269.676Z" fill="#263238"/>
<path d="M61.8075 261.044C61.8075 261.044 62.4172 266.178 62.465 267.288C62.5128 268.398 67.4863 268.745 68.4427 266.727L68.5981 260.447L61.8075 261.044Z" fill="#F28F8F"/>
<path d="M66.8167 264.208L65.0832 272.004C65.0832 272.004 64.9038 272.947 68.9806 273.556C73.0574 274.165 79.4176 271.431 80.5055 270.882C81.5935 270.333 81.7011 269.222 77.7199 269.437C73.7388 269.652 72.3161 269.676 72.3161 269.676L73.6193 266.213L66.8167 264.208Z" fill="#FFA8A7"/>
<path d="M61.8074 159.83C58.4001 165.12 55.1722 169.776 54.4788 175.722C53.0202 188.283 57.8023 202.634 58.8185 211.924C56.8854 214.567 55.7676 217.717 55.6026 220.986C55.6026 224.83 61.8075 261.044 61.8075 261.044C61.8075 261.044 66.3145 262.417 68.586 260.447L72.8541 193.823L70.6065 185.716L61.8074 159.83Z" fill="#455A64"/>
<path d="M72.8541 193.823L70.6065 185.716C66.3763 184.617 62.2941 183.014 58.448 180.94C58.448 180.94 60.7554 185.119 67.3428 187.411L70.774 197.834L71.0729 221.714L72.8541 193.823Z" fill="#37474F"/>
<path d="M61.8074 159.83C59.9902 162.791 55.6265 167.878 56.559 172.749C57.6828 178.719 60.8629 182.814 70.6065 185.716L79.7404 218.753C79.7404 218.753 74.9583 223.207 73.5356 227.433C72.1129 231.66 66.8167 264.208 66.8167 264.208C66.8167 264.208 68.4426 266.858 73.5834 266.214C73.5834 266.214 91.5164 225.392 92.7119 222.765C94.2416 220.076 94.7788 216.937 94.2302 213.894C93.6564 209.619 87.5592 162.791 87.5592 162.791L61.8074 159.83Z" fill="#455A64"/>
<path d="M60.1457 130.017C60.5121 129.043 61.2027 128.224 62.1016 127.698C63.0006 127.172 64.0532 126.97 65.0832 127.127C71.4554 128.859 81.3664 131.139 83.2434 131.688C83.2434 131.688 82.3945 143.95 89.7351 148.273C89.3884 151.007 87.5234 162.791 87.5234 162.791C87.5234 162.791 78.7003 167.066 71.4435 164.964C64.1866 162.863 61.7477 159.83 61.7477 159.83L65.3343 153.92C64.5572 151.998 61.5564 145.467 59.6196 139.401C58.9476 136.283 59.1293 133.041 60.1457 130.017Z" fill="#FFB900"/>
<path d="M64.4495 151.592C67.4678 153.405 70.6308 154.966 73.9062 156.26C70.9292 156.183 68.0191 155.362 65.4418 153.872L64.4495 151.592Z" fill="#E0E0E0"/>
<path d="M89.5797 147.353C86.9719 146.159 84.8265 144.147 83.4706 141.622C83.6905 143.562 84.3563 145.425 85.416 147.065C86.4757 148.705 87.9007 150.079 89.5797 151.078V147.353Z" fill="#E0E0E0"/>
<path d="M83.3031 131.688C87.3082 132.882 89.7949 133.264 91.9588 135.198C94.8042 137.754 97.7452 152.201 98.3429 155.186C99.383 160.355 100.531 165.728 99.407 168.14C98.594 169.883 94.1705 171.185 92.2338 165.549C91.8273 164.355 91.7436 163.806 91.3849 162.732C89.5558 157.335 86.806 147.019 86.806 147.019C86.806 147.019 81.3903 144.034 83.3031 131.688Z" fill="#FFA8A7"/>
<path d="M63.8876 98.9615C62.4649 99.7853 59.8945 100.585 58.2925 108.048C56.9883 114.308 56.2125 120.666 55.9732 127.056C56.033 129.372 60.839 135.808 70.9771 135.199C81.1152 134.59 84.7975 128.656 84.7975 128.656C84.7975 128.656 79.8121 126.626 80.2066 117.91C80.2066 117.91 78.4492 121.36 73.6312 119.629C68.8132 117.898 63.8876 98.9615 63.8876 98.9615Z" fill="#263238"/>
</svg>
