<svg width="30" height="24" viewBox="0 0 30 24" fill="none" xmlns="http://www.w3.org/2000/svg">
<path d="M21.6667 8.66671C21.6667 4.06254 16.8177 0.333374 10.8333 0.333374C4.84896 0.333374 0 4.06254 0 8.66671C0 10.4532 0.734375 12.099 1.97917 13.4584C1.28125 15.0313 0.130208 16.2813 0.114583 16.2969C0 16.4167 -0.03125 16.5938 0.0364583 16.75C0.104167 16.9063 0.25 17 0.416667 17C2.32292 17 3.90104 16.3594 5.03646 15.698C6.71354 16.5157 8.69792 17 10.8333 17C16.8177 17 21.6667 13.2709 21.6667 8.66671ZM28.0208 20.125C29.2656 18.7709 30 17.1198 30 15.3334C30 11.849 27.2135 8.86462 23.2656 7.61983C23.3125 7.96358 23.3333 8.31254 23.3333 8.66671C23.3333 14.1823 17.724 18.6667 10.8333 18.6667C10.2708 18.6667 9.72396 18.625 9.18229 18.5677C10.8229 21.5625 14.6771 23.6667 19.1667 23.6667C21.3021 23.6667 23.2865 23.1875 24.9635 22.3646C26.099 23.0261 27.6771 23.6667 29.5833 23.6667C29.75 23.6667 29.901 23.5677 29.9635 23.4167C30.0312 23.2657 30 23.0886 29.8854 22.9636C29.8698 22.948 28.7188 21.7032 28.0208 20.125Z" fill="black"/>
</svg>
