<svg width="513" height="358" fill="none" xmlns="http://www.w3.org/2000/svg"><path d="M75.126 318.092c100.173 52.26 262.575 52.26 362.748 0 100.174-52.26 100.162-136.985 0-189.245-100.161-52.26-262.575-52.26-362.748 0-100.174 52.26-100.162 136.985 0 189.245Z" fill="#F5F5F5"/><path d="M191.823 64.048v3.644s1.7-1.297 1.751-2.222c.051-.926-1.751-1.422-1.751-1.422Z" fill="#000"/><path d="M195.12 63.166c.18.507.236 1.04.165 1.566a3.49 3.49 0 0 1-.578 1.49 4.12 4.12 0 0 1-1.225 1.169 4.86 4.86 0 0 1-1.667.651c-4.656 1.261-7.587 0-8.292 1.123-.705 1.122 22.132 12.389 22.132 12.389l-4.341-16.201-6.194-2.186Z" fill="#80C4D3"/><path d="m197.091 231.963 98.215-48.625V19.716c0-2.332-1.495-3.491-3.339-2.573l-3.33 1.654-91.546 45.324.085.685-.085 167.157Z" fill="#80C4D3"/><path d="m197.091 231.963 98.215-48.625V19.716c0-2.332-1.495-3.491-3.339-2.573l-3.33 1.654-91.546 45.324.085.685-.085 167.157Z" fill="#fff"/><path d="m208.399 81.816 4.809-4.635-15.955-7.9c-3.713 2.398-6.559 3.68-9.881 2.485l21.027 10.05Z" fill="#455A64"/><path d="M210.166 76.095a.303.303 0 0 1-.126-.015.268.268 0 0 1-.103-.065 1.037 1.037 0 0 1-.221-.729v-.225l-11.894-5.867c.62-.615 1.005-1.378 1.104-2.187l90.458-44.806a6.719 6.719 0 0 1 2.634-.532c.914 0 1.816.182 2.634.532l14.97 7.404-91.163 44.756a12.917 12.917 0 0 0-2.15-.182c-1.7-.046-3.368.404-4.732 1.275a2.786 2.786 0 0 1-1.411.641Z" fill="#FAFAFA"/><path d="M292.018 22.033a5.803 5.803 0 0 1 2.43.481l14.316 7.092-90.382 44.376a12.465 12.465 0 0 0-2.073-.168c-1.797-.054-3.561.425-4.996 1.356-.31.255-.685.445-1.096.554a1.032 1.032 0 0 1-.076-.445v-.452l-.45-.218-11.241-5.561c.471-.55.785-1.186.918-1.858l90.203-44.676a5.715 5.715 0 0 1 2.422-.48h.025Zm-.025-.728a6.55 6.55 0 0 0-2.847.583l-90.653 44.9s.45.554-1.24 2.493l12.038 5.954s-.076 1.225.85 1.225a3.224 3.224 0 0 0 1.699-.729c1.285-.822 2.859-1.244 4.461-1.195.745-.003 1.489.065 2.217.204l91.954-45.134-15.608-7.718a6.513 6.513 0 0 0-2.846-.583h-.025Z" fill="#E0E0E0"/><path d="M210.167 80.847c.943-.46 1.342-.998.9-1.217l-.773-.379c-.85-.423-.06-1.516 1.793-2.434 1.852-.918 4.044-1.327 4.893-.904l.774.38c.441.218 2.056-.234 3.619-1.007l-.561 168.148-2.26 1.122a2.528 2.528 0 0 1-1.342-.102l-.765-.386c-.849-.423-3.041 0-4.894.889-1.852.889-2.642 2.012-1.792 2.434l.773.379c.442.219 0 .729-.85 1.225l.485-168.148Z" fill="#80C4D3"/><path d="M210.167 80.847c.943-.46 1.342-.998.9-1.217l-.773-.379c-.85-.423-.06-1.516 1.793-2.434 1.852-.918 4.044-1.327 4.893-.904l.774.38c.441.218 2.056-.234 3.619-1.007l-.561 168.148-2.26 1.122a2.528 2.528 0 0 1-1.342-.102l-.765-.386c-.849-.423-3.041 0-4.894.889-1.852.889-2.642 2.012-1.792 2.434l.773.379c.442.219 0 .729-.85 1.225l.485-168.148Z" fill="#fff"/><path d="m218.552 244.556 100.169-49.623V31.303c0-2.332-1.495-3.49-3.339-2.572l-3.373 1.654-93.457 44.362v169.809Z" fill="#80C4D3"/><path d="m218.552 244.556 100.169-49.623V31.303c0-2.332-1.495-3.49-3.339-2.572l-3.373 1.654-93.457 44.362v169.809Z" fill="#fff"/><path d="M211.237 248.164v-168.3l-6.075 2.098v167.835a6.56 6.56 0 0 0 3.399-.285l2.676-1.348Z" fill="#80C4D3"/><path d="M211.237 248.164v-168.3l-6.075 2.098v167.835a6.56 6.56 0 0 0 3.399-.285l2.676-1.348Z" fill="#fff"/><path d="M181.075 237.297c-.008.095-.008.19 0 .285a.396.396 0 0 0 .051.182c.042.139.108.271.195.393.023.071.06.138.111.197.143.228.317.441.518.634.213.222.44.434.68.634.272.212.552.416.849.634.166.131.345.248.536.35l.45.27c.34.204.696.393 1.087.59l12.456 6.166a22.47 22.47 0 0 0 7.119 2.186V81.962l-24.069-12.543v167.835l.017.043Z" fill="#80C4D3"/><path d="M181.075 237.297c-.008.095-.008.19 0 .285a.396.396 0 0 0 .051.182c.042.139.108.271.195.393.023.071.06.138.111.197.143.228.317.441.518.634.213.222.44.434.68.634.272.212.552.416.849.634.166.131.345.248.536.35l.45.27c.34.204.696.393 1.087.59l12.456 6.166a22.47 22.47 0 0 0 7.119 2.186V81.962l-24.069-12.543v167.835l.017.043Z" fill="#fff"/><path d="M205.17 94.024v17.549c-7.919-1.341-20.212-7.47-24.112-11.937V82.094c5.454 5.298 16.193 10.312 24.112 11.93ZM205.17 211.615v17.549c-7.919-1.341-20.212-7.47-24.112-11.937v-17.542c5.454 5.298 16.193 10.312 24.112 11.93Z" fill="#FAFAFA"/><path d="m199.784 80.665 1.649-2.42c3.041 1.509 4.35 1.108 5.284 1.02-.127-.827.077-1.667.578-2.383.787-1.049 1.876-1.907 3.16-2.492a13.98 13.98 0 0 1 4.784-1.392h.357a6.242 6.242 0 0 1 2.931.474l89.795-44.457 3.764-1.866c.295-.177.64-.282 1-.303a2.27 2.27 0 0 1 1.039.18l3.339 1.647a2.337 2.337 0 0 0-2.09.109h-.051l-93.942 46.534c-1.563.772-3.186 1.239-3.627 1.02l-.774-.386a3.17 3.17 0 0 0-1.741-.095 10.445 10.445 0 0 0-3.144.984c-1.86.918-2.651 2.011-1.792 2.434l.764.379c.442.219 0 .729-.849 1.217l-1.7.824c-1.86.881-4.8.925-8.734-1.028Z" fill="#80C4D3"/><path d="m199.784 80.665 1.649-2.42c3.041 1.509 4.35 1.108 5.284 1.02-.127-.827.077-1.667.578-2.383.787-1.049 1.876-1.907 3.16-2.492a13.98 13.98 0 0 1 4.784-1.392h.357a6.242 6.242 0 0 1 2.931.474l89.795-44.457 3.764-1.866c.295-.177.64-.282 1-.303a2.27 2.27 0 0 1 1.039.18l3.339 1.647a2.337 2.337 0 0 0-2.09.109h-.051l-93.942 46.534c-1.563.772-3.186 1.239-3.627 1.02l-.774-.386a3.17 3.17 0 0 0-1.741-.095 10.445 10.445 0 0 0-3.144.984c-1.86.918-2.651 2.011-1.792 2.434l.764.379c.442.219 0 .729-.849 1.217l-1.7.824c-1.86.881-4.8.925-8.734-1.028Z" fill="#fff"/><path d="m201.433 78.245-14.206-7.069a14.071 14.071 0 0 1-.85-.46l-.671-.415a.164.164 0 0 1-.059-.043c2.413.903 5.684.043 7.842-1.035 1.254-.578 2.316-1.42 3.084-2.449.552-.798.743-1.742.535-2.653l.289-.145c.195-.103.391-.183.586-.285l83.976-41.563 4.809-2.39c.45-.22.917-.46 1.393-.678l4.07-2.034c.279-.129.591-.197.909-.197.317 0 .629.068.909.197l-.918-.451-2.413-1.203a2.102 2.102 0 0 0-.849-.177c-.296 0-.587.06-.85.177h-.042c-.485.233-.978.496-1.504.729l-.935.466c-.552.285-1.113.547-1.623.795a24.26 24.26 0 0 0-.994.495c-.297.16-.509.24-.713.35l-1.241.605-88.011 43.611c-1.521.729-2.413 1.53-2.056 1.786l.127.08.748.371c.926.46.178 1.567-1.699 2.478-1.878.911-3.305.933-4.248.518l-.909-.452a1.7 1.7 0 0 0-.645-.216 1.78 1.78 0 0 0-.689.048c-.136.059-.306.153-.485.24-.178.088-.654.329-1.053.526-.399.196-.85.408-1.308.641a1.232 1.232 0 0 0-.618.542.982.982 0 0 0-.079.755.298.298 0 0 0 0 .182c.04.14.106.273.195.394a.493.493 0 0 0 .094.19c.143.227.317.44.518.633.213.223.44.434.68.635.272.21.552.415.849.634.169.13.351.247.544.35l.442.27c.34.203.696.4 1.087.59l14.197 7.04 1.785-2.413Z" fill="#80C4D3"/><path d="m201.433 78.245-14.206-7.069a14.071 14.071 0 0 1-.85-.46l-.671-.415a.164.164 0 0 1-.059-.043c2.413.903 5.684.043 7.842-1.035 1.254-.578 2.316-1.42 3.084-2.449.552-.798.743-1.742.535-2.653l.289-.145c.195-.103.391-.183.586-.285l83.976-41.563 4.809-2.39c.45-.22.917-.46 1.393-.678l4.07-2.034c.279-.129.591-.197.909-.197.317 0 .629.068.909.197l-.918-.451-2.413-1.203a2.102 2.102 0 0 0-.849-.177c-.296 0-.587.06-.85.177h-.042c-.485.233-.978.496-1.504.729l-.935.466c-.552.285-1.113.547-1.623.795a24.26 24.26 0 0 0-.994.495c-.297.16-.509.24-.713.35l-1.241.605-88.011 43.611c-1.521.729-2.413 1.53-2.056 1.786l.127.08.748.371c.926.46.178 1.567-1.699 2.478-1.878.911-3.305.933-4.248.518l-.909-.452a1.7 1.7 0 0 0-.645-.216 1.78 1.78 0 0 0-.689.048c-.136.059-.306.153-.485.24-.178.088-.654.329-1.053.526-.399.196-.85.408-1.308.641a1.232 1.232 0 0 0-.618.542.982.982 0 0 0-.079.755.298.298 0 0 0 0 .182c.04.14.106.273.195.394a.493.493 0 0 0 .094.19c.143.227.317.44.518.633.213.223.44.434.68.635.272.21.552.415.849.634.169.13.351.247.544.35l.442.27c.34.203.696.4 1.087.59l14.197 7.04 1.785-2.413Z" fill="#fff"/><path d="M223.973 79.513v3.644s1.648-1.29 1.699-2.186c.051-.896-1.699-1.458-1.699-1.458Z" fill="#000"/><path d="M227.261 78.624c.185.508.246 1.042.178 1.57a3.477 3.477 0 0 1-.573 1.5c-.31.46-.728.86-1.227 1.175-.5.315-1.07.537-1.675.653-4.664 1.26-7.595 0-8.292 1.122-.697 1.122 22.09 12.39 22.09 12.39l-4.333-16.202-6.168-2.208Z" fill="#80C4D3"/><path d="M227.261 78.624c.185.508.246 1.042.178 1.57a3.477 3.477 0 0 1-.573 1.5c-.31.46-.728.86-1.227 1.175-.5.315-1.07.537-1.675.653-4.664 1.26-7.595 0-8.292 1.122-.697 1.122 22.09 12.39 22.09 12.39l-4.333-16.202-6.168-2.208Z" fill="#000"/><path d="m229.232 247.428 98.215-48.632V35.181c0-2.34-1.487-3.491-3.331-2.58l-3.33 1.662-91.554 45.316.085.693-.085 167.156Z" fill="#80C4D3"/><path d="m240.54 97.274 4.817-4.635-15.955-7.9c-3.713 2.405-6.559 3.688-9.881 2.485l21.019 10.05Z" fill="#455A64"/><path d="M242.341 91.553a.344.344 0 0 1-.128-.013.298.298 0 0 1-.109-.06 1.159 1.159 0 0 1-.221-.729v-.218l-11.852-5.867c.619-.615 1.004-1.378 1.104-2.186l90.399-44.821a6.717 6.717 0 0 1 2.634-.532c.914 0 1.815.182 2.633.532l14.945 7.404-91.163 44.763a11.832 11.832 0 0 0-2.141-.19c-1.701-.046-3.369.404-4.733 1.276-.79.561-1.215.641-1.368.641Z" fill="#FAFAFA"/><path d="M324.167 37.491a5.605 5.605 0 0 1 2.422.488l14.307 7.084-90.365 44.377a12.562 12.562 0 0 0-2.073-.168c-1.8-.051-3.567.43-5.004 1.363a2.954 2.954 0 0 1-1.096.554 1.21 1.21 0 0 1-.076-.452v-.445l-.459-.226-11.232-5.56c.468-.551.782-1.187.918-1.859l90.228-44.668a5.674 5.674 0 0 1 2.43-.488Zm0-.729a6.692 6.692 0 0 0-2.854.583l-90.671 44.909s.442.546-1.24 2.485l12.03 5.962s-.076 1.217.85 1.217a3.178 3.178 0 0 0 1.699-.73c1.288-.821 2.864-1.242 4.469-1.195.743-.003 1.485.068 2.209.212l91.936-45.134-15.607-7.726a6.652 6.652 0 0 0-2.846-.583h.025Z" fill="#E0E0E0"/><path d="M242.341 96.305c.935-.459 1.334-.998.892-1.217l-.764-.379c-.85-.423-.068-1.516 1.793-2.434 1.86-.918 4.027-1.327 4.876-.911l.773.386c.442.219 2.056-.233 3.62-1.006l-.561 168.141-2.294 1.129c-.447.09-.915.052-1.334-.109l-.773-.379c-.85-.423-3.042 0-4.885.882-1.844.882-2.651 2.011-1.793 2.434l.773.386c.442.219 0 .729-.9 1.217l.577-168.14Z" fill="#80C4D3"/><path d="M242.341 96.305c.935-.459 1.334-.998.892-1.217l-.764-.379c-.85-.423-.068-1.516 1.793-2.434 1.86-.918 4.027-1.327 4.876-.911l.773.386c.442.219 2.056-.233 3.62-1.006l-.561 168.141-2.294 1.129c-.447.09-.915.052-1.334-.109l-.773-.379c-.85-.423-3.042 0-4.885.882-1.844.882-2.651 2.011-1.793 2.434l.773.386c.442.219 0 .729-.9 1.217l.577-168.14Z" fill="#fff"/><path d="m250.667 260.022 100.204-49.624V46.768c0-2.339-1.487-3.49-3.331-2.58l-3.33 1.663-93.543 44.361v169.81Z" fill="#80C4D3"/><path d="m250.667 260.022 100.204-49.624V46.768c0-2.339-1.487-3.49-3.331-2.58l-3.33 1.663-93.543 44.361v169.81Z" fill="#fff"/><path d="M243.386 263.629V95.321l-6.074 2.106v167.835a6.579 6.579 0 0 0 3.356-.292l2.718-1.341Z" fill="#80C4D3"/><path d="M243.386 263.629V95.321l-6.074 2.106v167.835a6.579 6.579 0 0 0 3.356-.292l2.718-1.341Z" fill="#fff"/><path d="M213.216 252.763a1.83 1.83 0 0 0 0 .277.384.384 0 0 0 .051.182c.038.139.101.272.187.393a.984.984 0 0 0 .111.197c.149.227.326.439.527.634.208.226.435.437.679.634.272.212.553.416.85.634.17.129.352.246.544.35l.45.27c.331.204.697.401 1.079.59l12.464 6.166a22.474 22.474 0 0 0 7.111 2.186V97.427l-24.061-12.55v167.886h.008Z" fill="#80C4D3"/><path d="M213.216 252.763a1.83 1.83 0 0 0 0 .277.384.384 0 0 0 .051.182c.038.139.101.272.187.393a.984.984 0 0 0 .111.197c.149.227.326.439.527.634.208.226.435.437.679.634.272.212.553.416.85.634.17.129.352.246.544.35l.45.27c.331.204.697.401 1.079.59l12.464 6.166a22.474 22.474 0 0 0 7.111 2.186V97.427l-24.061-12.55v167.886h.008Z" fill="#fff"/><path d="M237.311 109.489v17.542c-7.909-1.334-20.212-7.463-24.103-11.931V97.551c5.455 5.298 16.194 10.312 24.103 11.938ZM237.311 227.073v17.549c-7.909-1.341-20.212-7.463-24.103-11.93v-17.55c5.455 5.299 16.194 10.32 24.103 11.931Z" fill="#FAFAFA"/><path d="m231.934 96.123 1.639-2.442c3.05 1.51 4.35 1.115 5.285 1.02a3.311 3.311 0 0 1 .578-2.382c.791-1.047 1.878-1.905 3.16-2.493a14.225 14.225 0 0 1 4.792-1.392h.357a6.154 6.154 0 0 1 2.931.474l86.839-43 2.957-1.457 3.763-1.916a2.25 2.25 0 0 1 2.039-.131l3.331 1.646a2.32 2.32 0 0 0-2.082.11h-.051l-9.974 4.992-83.993 41.592c-1.563.773-3.186 1.24-3.628 1.02l-.739-.4a3.089 3.089 0 0 0-1.741-.102 10.483 10.483 0 0 0-3.153.984c-1.852.925-2.642 2.011-1.784 2.441l.765.38c.442.218.042.728-.892 1.216l-1.699.817c-1.819.94-4.775.969-8.7-.977Z" fill="#80C4D3"/><path d="m231.934 96.123 1.639-2.442c3.05 1.51 4.35 1.115 5.285 1.02a3.311 3.311 0 0 1 .578-2.382c.791-1.047 1.878-1.905 3.16-2.493a14.225 14.225 0 0 1 4.792-1.392h.357a6.154 6.154 0 0 1 2.931.474l86.839-43 2.957-1.457 3.763-1.916a2.25 2.25 0 0 1 2.039-.131l3.331 1.646a2.32 2.32 0 0 0-2.082.11h-.051l-9.974 4.992-83.993 41.592c-1.563.773-3.186 1.24-3.628 1.02l-.739-.4a3.089 3.089 0 0 0-1.741-.102 10.483 10.483 0 0 0-3.153.984c-1.852.925-2.642 2.011-1.784 2.441l.765.38c.442.218.042.728-.892 1.216l-1.699.817c-1.819.94-4.775.969-8.7-.977Z" fill="#fff"/><path d="m233.573 93.681-14.171-7.04-.85-.466-.671-.408a.127.127 0 0 1-.06-.051c2.405.903 5.684.043 7.834-1.035 1.26-.573 2.326-1.417 3.092-2.45.55-.798.737-1.742.527-2.652l.289-.146.586-.284 88.81-43.975c.451-.212.918-.46 1.394-.678l4.061-2.012c.279-.13.591-.197.909-.197.317 0 .63.068.909.197l-.909-.452-2.464-1.158a2.085 2.085 0 0 0-.85-.18 2.08 2.08 0 0 0-.849.18h-.043c-.484.24-.977.495-1.504.729l-.943.459c-.552.284-1.104.546-1.614.794-.365.182-.705.343-1.002.503-.298.16-.502.24-.706.35l-1.249.605-87.96 43.545c-1.529.729-2.413 1.523-2.056 1.778a.562.562 0 0 0 .128.08l.747.372c.926.46.179 1.567-1.699 2.478-1.878.911-3.305.94-4.248.518l-.918-.452a1.663 1.663 0 0 0-.64-.217 1.75 1.75 0 0 0-.685.05l-.493.247-1.053.517-1.3.642c-.272.115-.49.306-.619.542a.997.997 0 0 0-.086.755.342.342 0 0 0 .051.182c.04.138.103.27.186.394.024.068.056.134.094.197.151.223.328.432.527.626.208.225.435.438.679.634.272.219.553.416.85.634.17.129.352.246.544.35l.45.277c.331.197.697.394 1.079.583l14.206 7.04 1.69-2.404Z" fill="#80C4D3"/><path d="m233.573 93.681-14.171-7.04-.85-.466-.671-.408a.127.127 0 0 1-.06-.051c2.405.903 5.684.043 7.834-1.035 1.26-.573 2.326-1.417 3.092-2.45.55-.798.737-1.742.527-2.652l.289-.146.586-.284 88.81-43.975c.451-.212.918-.46 1.394-.678l4.061-2.012c.279-.13.591-.197.909-.197.317 0 .63.068.909.197l-.909-.452-2.464-1.158a2.085 2.085 0 0 0-.85-.18 2.08 2.08 0 0 0-.849.18h-.043c-.484.24-.977.495-1.504.729l-.943.459c-.552.284-1.104.546-1.614.794-.365.182-.705.343-1.002.503-.298.16-.502.24-.706.35l-1.249.605-87.96 43.545c-1.529.729-2.413 1.523-2.056 1.778a.562.562 0 0 0 .128.08l.747.372c.926.46.179 1.567-1.699 2.478-1.878.911-3.305.94-4.248.518l-.918-.452a1.663 1.663 0 0 0-.64-.217 1.75 1.75 0 0 0-.685.05l-.493.247-1.053.517-1.3.642c-.272.115-.49.306-.619.542a.997.997 0 0 0-.086.755.342.342 0 0 0 .051.182c.04.138.103.27.186.394.024.068.056.134.094.197.151.223.328.432.527.626.208.225.435.438.679.634.272.219.553.416.85.634.17.129.352.246.544.35l.45.277c.331.197.697.394 1.079.583l14.206 7.04 1.69-2.404Z" fill="#fff"/><path d="M398.993 208.241V15.015c0-4.453-1.844-5.27-4.129-6.399-2.286-1.13-4.979-1.26-8.233.35L260.667 71.358c-1.712.959-3.138 2.25-4.159 3.77-1.022 1.52-1.611 3.224-1.72 4.976v193.218c0 3.221 1.147 4.373 3.399 5.532 2.251 1.158 5.675 2.128 8.929.517l125.963-62.392c1.847-.83 3.382-2.09 4.428-3.637 1.047-1.546 1.562-3.315 1.486-5.101Z" fill="#37474F"/><path d="m393.698 209.873-128.291 63.558V79.455l-8.904-4.329c-1.05 1.506-1.635 3.216-1.699 4.97v193.226c0 3.221 1.147 4.373 3.398 5.531 2.252 1.159 5.676 2.129 8.93.518l125.963-62.392c2.313-1.063 4.117-2.789 5.098-4.876l-.332-.16-4.163-2.07Z" fill="#263238"/><path d="M392.96 13.521 266.751 76.06c-1.201.672-2.201 1.577-2.918 2.642a7.056 7.056 0 0 0-1.212 3.487v191.797c0 3.455 2.864 4.869 6.347 3.134l123.992-61.401c1.359-.765 2.489-1.792 3.301-3a8.016 8.016 0 0 0 1.372-3.953V15.839c0-2.551-2.107-3.593-4.673-2.318Z" fill="#455A64"/><path d="M335.195 235.25c0 2.871-2.03 6.202-4.545 7.448-2.515 1.246-4.537-.08-4.537-2.915s2.03-6.209 4.537-7.448c2.506-1.239 4.545.043 4.545 2.915Z" fill="#263238"/><path d="M395.382 31.996V192.44a7.696 7.696 0 0 1-1.32 3.807c-.783 1.162-1.873 2.15-3.183 2.884l-119.464 59.171c-2.481 1.238-4.494.24-4.494-2.223V94.439c.137-2.219 1.266-4.307 3.152-5.83l.433-.328c.286-.2.59-.38.909-.54l117.824-58.325.442-.226c3.135-1.567 5.701-.299 5.701 2.806Z" fill="#000"/><path d="M384.345 194.802c1.309-.736 2.398-1.726 3.178-2.889a7.7 7.7 0 0 0 1.317-3.809V29.591L271.415 87.756c-.319.159-.623.34-.909.54l-.433.328c-1.886 1.523-3.015 3.61-3.152 5.83V252.96l117.424-58.158Z" fill="#FAFAFA"/><path d="m278.093 92.676 98.249-48.67V188.12l-98.249 48.669V92.676ZM275.34 91.29l2.753 1.386v144.112l-2.753-1.363V91.291Z" fill="#80C4D3"/><path d="m275.34 91.29 2.753 1.386v144.112l-2.753-1.363V91.291Z" fill="#000"/><path d="m275.34 91.29 98.249-48.668 2.745 1.385-98.241 48.669-2.753-1.385Z" fill="#80C4D3"/><path d="m275.34 91.29 98.249-48.668 2.745 1.385-98.241 48.669-2.753-1.385Z" fill="#fff"/><path d="m280.914 95.183 2.872 1.457c3.551 1.793 17.4 1.356 26.567-3.177l74.205-36.768-12.957-6.413-90.687 44.9Z" fill="#E0E0E0"/><path d="M290.667 230.185c-3.067 0-5.497-.336-6.669-.933l-2.659-1.341V95.817l2.234 1.136c1.317.664 3.84 1.028 7.094 1.028 5.514 0 13.594-1.108 19.898-4.22l73.568-36.44v132.087l-73.993 36.659c-6.134 3.039-14.078 4.118-19.473 4.118Z" fill="#FAFAFA"/><path d="M383.708 57.956v131.249l-73.78 36.549c-6.058 3.002-13.917 4.066-19.261 4.066-2.948 0-5.361-.328-6.448-.881l-2.456-1.239V96.465l1.598.81c1.376.728 3.976 1.078 7.306 1.078 5.565 0 13.773-1.122 20.111-4.263l72.93-36.127v-.007Zm.85-1.254-74.205 36.754c-5.947 2.915-13.883 4.168-19.686 4.168-3.126 0-5.641-.35-6.881-.976l-2.872-1.458v132.932l2.872 1.458c1.24.634 3.755.984 6.881.984 5.803 0 13.73-1.217 19.686-4.162l74.171-36.745V56.695l.034.007Z" fill="#E0E0E0"/><path d="M310.353 144.5c-3.575 1.691-7.45 2.865-11.47 3.477v2.354c4.02-.612 7.895-1.786 11.47-3.477l66.439-32.978v-2.354L310.353 144.5ZM310.353 150.287a41.702 41.702 0 0 1-11.47 3.476v2.347a41.666 41.666 0 0 0 11.47-3.469l66.439-32.985v-2.347l-66.439 32.978ZM310.353 156.066a41.399 41.399 0 0 1-11.47 3.476v2.354a41.668 41.668 0 0 0 11.47-3.476l66.439-32.978v-2.354l-66.439 32.978ZM310.353 161.853a41.666 41.666 0 0 1-11.47 3.469v2.354c4.02-.612 7.895-1.786 11.47-3.477l66.439-32.978v-2.346l-66.439 32.978ZM310.353 167.632c-3.575 1.691-7.45 2.865-11.47 3.477v2.346a41.666 41.666 0 0 0 11.47-3.469l66.439-32.978v-2.354l-66.439 32.978ZM310.353 173.412a41.433 41.433 0 0 1-11.47 3.476v2.354a41.433 41.433 0 0 0 11.47-3.476l66.439-32.978v-2.354l-66.439 32.978ZM310.353 179.198a41.442 41.442 0 0 1-11.47 3.469v2.354a41.666 41.666 0 0 0 11.47-3.469l66.439-32.985v-2.347l-66.439 32.978ZM310.353 184.978a41.467 41.467 0 0 1-11.47 3.476v2.354a41.702 41.702 0 0 0 11.47-3.476l66.439-32.978V152l-66.439 32.978ZM310.353 190.764a41.666 41.666 0 0 1-11.47 3.469v2.354a41.433 41.433 0 0 0 11.47-3.476l66.439-32.978v-2.347l-66.439 32.978ZM310.353 196.543c-3.575 1.691-7.45 2.865-11.47 3.477v2.347a41.702 41.702 0 0 0 11.47-3.47l66.439-32.978v-2.354l-66.439 32.978ZM310.353 202.323a41.433 41.433 0 0 1-11.47 3.476v2.354a41.433 41.433 0 0 0 11.47-3.476l66.439-32.978v-2.354l-66.439 32.978ZM310.353 208.11a41.442 41.442 0 0 1-11.47 3.469v2.354c4.02-.612 7.895-1.786 11.47-3.477l66.439-32.978v-2.346l-66.439 32.978Z" fill="#E0E0E0"/><path d="m374.524 51.717-26.61 13.468 27.477-13.038-.867-.43Zm5.217 2.587-54.902 26.718 55.794-26.237-.892-.48ZM294.915 97.42c-5.038.445-9.345.11-11.129-.78l-2.872-1.457v132.932l2.872 1.458c1.767.896 6.091 1.231 11.129.787V97.42Z" fill="#000"/><path d="m333.25 124.969.612-.438c.373-.269.39-.408.39-.954v-6.917c0-.546 0-.641-.399-.539l-.603.168v-.809l3.458-1.713v.809l-.672.481c-.314.226-.348.401-.348.904v6.96c0 .488 0 .605.357.517l.663-.175v.809l-3.458 1.706v-.809ZM337.447 122.877l.399-.306c.364-.275.627-.634.756-1.035l1.955-4.322-2.099-2.747c-.255-.314-.391-.336-.705-.285l-.357.059.127-.882 3.161-1.567v.823l-.578.416a.386.386 0 0 0-.122.119.325.325 0 0 0-.028.308.369.369 0 0 0 .099.134l1.36 1.815 1.3-3.061c.178-.408.212-.591-.102-.54l-.519.066.111-.831 2.77-1.377v.823l-.442.343a1.894 1.894 0 0 0-.714.955l-1.827 4.205 2.15 2.82a.47.47 0 0 0 .128.161.626.626 0 0 0 .416.135.634.634 0 0 0 .221-.048l.39-.102v.831l-3.449 1.712v-.823l.552-.394a.444.444 0 0 0 .152-.132.364.364 0 0 0 .043-.36.415.415 0 0 0-.118-.156l-1.368-1.779-1.428 3.244c-.152.328-.195.539.094.481l.578-.124v.78l-2.906 1.457v-.816ZM334.099 206.185l1.096-.546v.466l-1.096.54v-.46ZM336.274 206.513l.298-.211a.245.245 0 0 0 .086-.101.208.208 0 0 0 .016-.125v-1.698c0-.146 0-.226-.136-.168l-.315.153v-.313l.799-.532h.102v2.267c0 .16 0 .175.102.145l.28-.08v.277l-1.257.627.025-.241ZM337.77 206.608c.325-.173.599-.408.799-.688.201-.28.323-.595.356-.922 0-.343-.144-.474-.331-.46-.119.128-.25.247-.391.358l-.043-.321c.199-.142.362-.317.477-.515.116-.199.182-.415.195-.637 0-.277-.136-.393-.383-.269a.772.772 0 0 0-.365.364.314.314 0 0 1 .11.211.495.495 0 0 1-.071.237.59.59 0 0 1-.183.186c-.196.095-.264 0-.264-.211.025-.241.114-.474.262-.68.147-.206.348-.38.588-.508.467-.233.781-.117.781.379-.018.383-.179.75-.458 1.049.314-.043.586 0 .586.532a2.508 2.508 0 0 1-.501 1.269 3.068 3.068 0 0 1-1.139.918l-.025-.292ZM339.8 203.642a2.025 2.025 0 0 1 .224-1.135c.186-.355.475-.665.838-.898.544-.277 1.062-.197 1.062.889.048.399-.027.802-.216 1.168a2.41 2.41 0 0 1-.863.923c-.679.336-1.045-.029-1.045-.947Zm1.606-.86c0-.831-.221-.976-.535-.823-.315.153-.561.677-.561 1.399 0 .721.204 1.042.544.874.34-.167.552-.634.552-1.45ZM342.935 201.813l1.096-.54v.459l-1.096.54v-.459Z" fill="#455A64"/><path d="M283.717 96.596v16.763c3.229-3.739 4.435-6.917 4.435-9.526.028-1.428-.364-2.84-1.139-4.104-.775-1.265-1.908-2.342-3.296-3.133Z" fill="#F0F0F0"/><path d="M283.717 96.596v16.763c3.229-3.739 4.435-6.917 4.435-9.526.028-1.428-.364-2.84-1.139-4.104-.775-1.265-1.908-2.342-3.296-3.133Z" fill="#E0E0E0"/><path d="M283.582 96.531c3.551 1.793 2.761 8.84-6.39 13.41l-73.916 36.877-13.305-6.625 90.909-45.04 2.702 1.378Z" fill="#E0E0E0"/><path d="m189.971 140.222 13.314 6.596V279.75l-13.314-6.596V140.222Z" fill="#E0E0E0"/><path d="m189.971 140.222 13.314 6.596V279.75l-13.314-6.596V140.222Z" fill="#000"/><path d="m277.175 109.933-3.305 1.655-70.611 35.23V279.75l73.916-36.884c6.712-3.345 8.327-6.268 8.352-8.877V99.504c-.04 4.121-2.823 7.597-8.352 10.429Z" fill="#F0F0F0"/><path d="m210.727 155.644 63.16-31.302 3.314-1.654v-2.406l-3.314 1.655-63.16 31.302v2.405ZM210.727 161.423l63.16-31.302 3.314-1.654v-2.405l-3.314 1.654-63.16 31.295v2.412ZM210.727 167.202l63.16-31.302 3.314-1.654v-2.405l-3.314 1.654-63.16 31.295v2.412ZM210.727 172.982l63.16-31.302 3.314-1.655v-2.405l-3.314 1.655-63.16 31.294v2.413ZM210.727 178.761l63.16-31.302 3.314-1.654V143.4l-3.314 1.647-63.16 31.302v2.412ZM210.727 184.54l63.16-31.301 3.314-1.655v-2.412l-3.314 1.654-63.16 31.302v2.412ZM210.727 190.312l63.16-31.294 3.314-1.654v-2.413l-3.314 1.655-63.16 31.301v2.405ZM210.727 196.092l63.16-31.295 3.314-1.654v-2.412l-3.314 1.654-63.16 31.302v2.405ZM210.727 201.871l63.16-31.294 3.314-1.655v-2.412l-3.314 1.654-63.16 31.302v2.405ZM210.727 207.65l63.16-31.294 3.314-1.654v-2.413l-3.314 1.655-63.16 31.301v2.405ZM210.727 213.43l63.16-31.295 3.314-1.661v-2.405l-3.314 1.654-63.16 31.302v2.405ZM210.727 219.209l63.16-31.294 3.314-1.662v-2.405l-3.314 1.654-63.16 31.302v2.405ZM210.727 224.988l63.16-31.301 3.314-1.655v-2.405l-3.314 1.655-63.16 31.301v2.405ZM210.727 230.768l63.16-31.302 3.314-1.654v-2.405l-3.314 1.654-63.16 31.302v2.405ZM210.727 236.547l63.16-31.302 3.314-1.654v-2.405l-3.314 1.654-63.16 31.302v2.405ZM210.727 242.326l63.16-31.301 3.314-1.655v-2.405l-3.314 1.655-63.16 31.294v2.412ZM210.727 248.106l63.16-31.302 3.314-1.654v-2.405l-3.314 1.654-63.16 31.295v2.412ZM210.727 253.885l63.16-31.302 3.314-1.654v-2.405l-3.314 1.654-63.16 31.295v2.412ZM210.727 259.664l63.16-31.301 3.314-1.655v-2.405l-3.314 1.655-63.16 31.294v2.412ZM199.691 145.025l26.61-13.468-27.477 13.009.867.459Zm-5.217-2.58 54.902-26.717-55.794 26.236.892.481Z" fill="#000"/><path d="M198.824 144.566v36.163l.85-35.711-.85-.452Zm-4.8 22.257.45-24.407-.849-.452.399 24.859Z" fill="#000"/><path d="M272.97 98.04a.643.643 0 0 1-.251-.186.526.526 0 0 1-.115-.266V99.3l2.872-1.377a3.167 3.167 0 0 1-2.506.117Zm12.744-5.24.076-.037-6.176 3.054 6.1-3.018Zm.076-.037.604-.306v-.423a.88.88 0 0 1-.188.427c-.102.127-.239.23-.399.302h-.017Z" fill="#263238"/><path d="m285.731 92.822-10.255 5.1c-.371.19-.788.303-1.219.33a3.19 3.19 0 0 1-1.262-.176c-.603-.299-.459-.853.306-1.232l10.289-5.101a3.215 3.215 0 0 1 2.481-.153c.569.27.45.823-.34 1.231Z" fill="#455A64"/><path d="M225.349 149.573c1.844-.933 15.497-7.886 28.997-15.516 13.501-7.631 22.625-13.556 26.746-17.389a37.126 37.126 0 0 0 2.991-3.098 20.774 20.774 0 0 0 3.67-5.699v128.115c0 3.71-2.379 7.893-6.967 12.433-10.739 10.626-49.982 30.522-55.479 33.277l.042-132.123Z" fill="#F5F5F5"/><path d="M287.371 109.715v126.242c0 3.644-2.345 7.725-6.865 12.193-10.348 10.239-47.366 29.151-54.732 32.883l.068-131.249c2.498-1.268 15.726-8.017 28.802-15.421 13.653-7.718 22.684-13.585 26.831-17.44a39.566 39.566 0 0 0 3.024-3.127 24.007 24.007 0 0 0 2.897-4.074l-.025-.007Zm.875-5.874c0 2.609-1.206 5.786-4.435 9.525a36.84 36.84 0 0 1-2.965 3.061c-4.809 4.475-15.743 11.158-26.669 17.331-14.597 8.257-29.185 15.611-29.185 15.611l-.136 132.939s44.546-22.126 56.228-33.677c5.48-5.423 7.043-9.642 7.069-12.667l-.001-132.131.094.008Z" fill="#E0E0E0"/><path d="M288.22 117.032c0 2.42-1.121 5.371-4.112 8.833a34.55 34.55 0 0 1-2.744 2.835c-2.974 2.762-8.496 6.435-14.783 10.261a413.48 413.48 0 0 1-9.949 5.831c-8.148 4.606-16.287 8.906-21.487 11.609v-2.448c5.2-2.697 13.339-7.004 21.487-11.61 3.398-1.917 6.797-3.884 9.949-5.83 6.321-3.834 11.809-7.5 14.783-10.262a35.813 35.813 0 0 0 2.744-2.842c2.991-3.462 4.112-6.413 4.112-8.833v2.456Z" fill="#E0E0E0"/><path d="M288.22 122.542c0 2.419-1.121 5.371-4.112 8.833a34.711 34.711 0 0 1-2.744 2.835c-2.974 2.762-8.496 6.435-14.783 10.261a416.834 416.834 0 0 1-9.949 5.831c-8.148 4.606-16.287 8.905-21.487 11.609v-2.448c5.2-2.697 13.339-7.004 21.487-11.61 3.398-1.917 6.797-3.885 9.949-5.831 6.321-3.833 11.809-7.499 14.783-10.261a35.813 35.813 0 0 0 2.744-2.842c2.991-3.462 4.112-6.414 4.112-8.833v2.456Z" fill="#E0E0E0"/><path d="M288.22 128.051c0 2.42-1.121 5.371-4.112 8.833a34.392 34.392 0 0 1-2.744 2.835c-2.974 2.762-8.496 6.436-14.783 10.262a413.496 413.496 0 0 1-9.949 5.83c-8.148 4.606-16.287 8.906-21.487 11.61v-2.449c5.2-2.697 13.339-7.004 21.487-11.61 3.398-1.916 6.797-3.884 9.949-5.83 6.321-3.833 11.809-7.499 14.783-10.261a35.996 35.996 0 0 0 2.744-2.843c2.991-3.462 4.112-6.413 4.112-8.833v2.456Z" fill="#E0E0E0"/><path d="M288.22 133.561c0 2.42-1.121 5.371-4.112 8.833a34.55 34.55 0 0 1-2.744 2.835c-2.974 2.762-8.496 6.435-14.783 10.261a410.18 410.18 0 0 1-9.949 5.831c-8.148 4.606-16.287 8.906-21.487 11.61v-2.449c5.2-2.697 13.339-7.004 21.487-11.61 3.398-1.917 6.797-3.884 9.949-5.83 6.321-3.834 11.809-7.5 14.783-10.262a35.813 35.813 0 0 0 2.744-2.842c2.991-3.462 4.112-6.413 4.112-8.833v2.456Z" fill="#E0E0E0"/><path d="M288.22 139.071c0 2.419-1.121 5.371-4.112 8.833a34.711 34.711 0 0 1-2.744 2.835c-2.974 2.762-8.496 6.435-14.783 10.261a416.834 416.834 0 0 1-9.949 5.831c-8.148 4.606-16.287 8.913-21.487 11.609v-2.463c5.2-2.697 13.339-7.004 21.487-11.61 3.398-1.917 6.797-3.884 9.949-5.83 6.321-3.834 11.809-7.499 14.783-10.262a36.807 36.807 0 0 0 2.744-2.835c2.991-3.469 4.112-6.42 4.112-8.84v2.471Z" fill="#E0E0E0"/><path d="M288.22 144.566c0 2.419-1.121 5.371-4.112 8.833a34.55 34.55 0 0 1-2.744 2.835c-2.974 2.762-8.496 6.435-14.783 10.261a413.48 413.48 0 0 1-9.949 5.831c-8.148 4.606-16.287 8.913-21.487 11.609v-2.448c5.2-2.697 13.339-6.997 21.487-11.61 3.398-1.917 6.797-3.885 9.949-5.831 6.321-3.833 11.809-7.499 14.783-10.261a36.989 36.989 0 0 0 2.744-2.835c2.948-3.469 4.112-6.384 4.112-8.818v2.434Z" fill="#E0E0E0"/><path d="M288.22 150.09c0 2.42-1.121 5.371-4.112 8.833a34.55 34.55 0 0 1-2.744 2.835c-2.974 2.762-8.496 6.435-14.783 10.269a466.004 466.004 0 0 1-9.949 5.83c-8.148 4.606-16.287 8.913-21.487 11.61v-2.449c5.2-2.696 13.339-6.996 21.487-11.61 3.398-1.916 6.797-3.884 9.949-5.83 6.321-3.833 11.809-7.499 14.783-10.261a37.173 37.173 0 0 0 2.744-2.835c2.991-3.469 4.112-6.421 4.112-8.841v2.449Z" fill="#E0E0E0"/><path d="M288.22 155.6c0 2.419-1.121 5.371-4.112 8.833a34.55 34.55 0 0 1-2.744 2.835c-2.974 2.762-8.496 6.435-14.783 10.269a470.27 470.27 0 0 1-9.949 5.83c-8.148 4.606-16.287 8.913-21.487 11.61v-2.449c5.2-2.697 13.339-6.996 21.487-11.61 3.398-1.917 6.797-3.884 9.949-5.83 6.321-3.834 11.809-7.499 14.783-10.262a36.807 36.807 0 0 0 2.744-2.835c2.991-3.469 4.112-6.42 4.112-8.84v2.449Z" fill="#E0E0E0"/><path d="M284.066 167.501a37.371 37.371 0 0 1-2.744 2.835c-4.469 4.154-14.605 10.349-24.733 16.07-8.147 4.613-16.287 8.913-21.486 11.61v2.448c5.199-2.696 13.339-7.003 21.486-11.609 10.128-5.729 20.264-11.923 24.733-16.078.975-.9 1.892-1.846 2.744-2.835 2.99-3.461 4.112-6.413 4.112-8.833v-2.448c.042 2.419-1.122 5.371-4.112 8.84Z" fill="#E0E0E0"/><path d="M284.066 172.989a37.371 37.371 0 0 1-2.744 2.835c-4.469 4.154-14.605 10.349-24.733 16.07-8.147 4.613-16.287 8.913-21.486 11.61v2.448c5.199-2.696 13.339-7.003 21.486-11.609 10.128-5.729 20.264-11.924 24.733-16.07a35.825 35.825 0 0 0 2.744-2.843c2.99-3.461 4.112-6.413 4.112-8.833v-2.427c.042 2.42-1.122 5.372-4.112 8.819Z" fill="#E0E0E0"/><path d="M284.066 178.521a37.559 37.559 0 0 1-2.744 2.835c-4.469 4.154-14.605 10.348-24.733 16.033-8.147 4.613-16.287 8.913-21.486 11.61v2.448c5.199-2.696 13.339-7.003 21.486-11.609 10.128-5.729 20.264-11.923 24.733-16.07a35.813 35.813 0 0 0 2.744-2.842c2.99-3.462 4.112-6.414 4.112-8.833v-2.449c.042 2.456-1.122 5.415-4.112 8.877Z" fill="#E0E0E0"/><path d="M242.681 273.023c13.772-7.433 31.623-17.695 38.403-24.4 5.48-5.422 7.043-9.642 7.068-12.666V103.833c0 2.609-1.206 5.787-4.435 9.526 0 0 1.623 74.709-6.584 107.49-8.207 32.781-34.452 52.174-34.452 52.174ZM361.729 56.017l-12.719 6.297 13.713 6.792v25.26l7.145-9.882 5.574 3.622V62.802l-13.713-6.785Z" fill="#000"/><path d="M363.292 55.216 377.005 62v27.446l-5.574-3.615-7.145 9.876V68.304l-13.713-6.793 12.719-6.296Z" fill="#80C4D3"/><path d="m363.292 55.216-12.719 6.296 13.713 6.793L377.005 62l-13.713-6.785Z" fill="#fff"/><path d="M439.249 189.286c19.525 0 35.352-7.532 35.352-16.823 0-9.292-15.827-16.824-35.352-16.824-19.524 0-35.352 7.532-35.352 16.824 0 9.291 15.828 16.823 35.352 16.823ZM74.504 287.705c17.9 0 32.411-6.907 32.411-15.426 0-8.52-14.51-15.426-32.41-15.426s-32.412 6.906-32.412 15.426c0 8.519 14.511 15.426 32.411 15.426ZM315.141 317.363c18.626 0 33.726-7.19 33.726-16.059s-15.1-16.059-33.726-16.059c-18.626 0-33.726 7.19-33.726 16.059s15.1 16.059 33.726 16.059ZM147.743 240.519c18.626 0 33.726-7.19 33.726-16.059s-15.1-16.059-33.726-16.059c-18.627 0-33.726 7.19-33.726 16.059s15.099 16.059 33.726 16.059Z" fill="#E6E6E6"/><path d="m465.467 52.647 4.651 8.514-7.233 6.196-6.635-10.495 9.217-4.215Z" fill="#F28F8F"/><path d="M448.012 33.675c4.615 0 9.696 1.72 11.442 5.337l7.173 14.853s-4.077 5.97-10.545 5.54l-8.07-25.73Z" fill="#02897A"/><path d="M465.108 62.486c1.351-2.508 1.686-2.627 2.487-3.176.801-.55 5.727-1.278 7.771-1.457 2.391-.203 3.264.239 2.594 2.305a103.704 103.704 0 0 1-6.743 15.115c-.645.848-.765 1.636-3.479 1.91-2.522.24-5.69.383-6.623.43-.932.048-2.223.299-1.399-2.447a89.518 89.518 0 0 1 3.707-9.11c1.04-2.28 1.685-3.57 1.685-3.57Z" fill="#37474F"/><path d="M411.238 146.959c-1.196-.597-1.877.86-2.917 2.03a8.629 8.629 0 0 0-2.045 3.057c-.251 1.373 1.005 3.582 2.391 4.776 1.387 1.193 2.989 2.065 3.491 4.692a6.426 6.426 0 0 0 4.256 5.373c2.989 1.289 6.994.871 8.369 0 1.602-1.039.132-2.185-2.116-5.409-2.941-4.203-5.236-7.164-5.236-11.14l-6.193-3.379Z" fill="#263238"/><path d="m413.593 143.509-2.391 3.582a3.376 3.376 0 0 0 .813 4.704l.072.06a3.677 3.677 0 0 0 4.626-.729l3.778-4.107-6.898-3.51Z" fill="#FFA8A7"/><path d="M457.995 74.45c.155 4.513-1.124 22.745-4.244 30.804-3.121 8.059-4.926 13.074-5.906 14.757-.98 1.684-29.267 29.169-29.267 29.169s-4.782-.346-5.559-4.991c0 0 11.585-19.676 14.095-23.712 2.511-4.036 11.406-10.22 11.406-10.22l-.813-35.294 20.288-.514Z" fill="#37474F"/><path d="M416.092 70.056c0-.776 2.391-9.695 3.586-13.815l8.763 3.01-2.056 6.494-7.711 7.964a3.251 3.251 0 0 1-2.582-3.653ZM451.763 170.501l5.981-1.358-1.98-8.697-5.981 1.358 1.98 8.697Z" fill="#FFA8A7"/><path d="M457.995 74.45h-28.693a99.514 99.514 0 0 0-1.076 12.632c-.227 12.417 11.346 34.971 11.346 34.971a47.403 47.403 0 0 0 .741 15.032c2.535 9.886 9.445 26.638 9.445 26.638s4.34.609 6.48-1.887c0 0-3.826-33.992-4.854-42.696-1.112-9.433-3.981-26.638-3.981-26.638a43.728 43.728 0 0 0 5.128-6.137 30.535 30.535 0 0 0 5.452-11.94" fill="#37474F"/><path d="M438.544 33.926c-5.5 1.325-12.996 3.044-15.16 8.99-2.164 5.946-5.284 16.49-5.284 16.49 1.196 2.089 7.831 3.82 10.138 2.614l1.076-3.582v15.975c4.304 4.68 19.296 6.854 28.693 0V44.564c0-4.776-2.654-10.507-9.983-10.925l-9.48.287Z" fill="#02897A"/><path d="m429.314 58.474 2.762-8.68-2.762 12.56v-3.88Z" fill="#E0E0E0"/><path d="M436.475 9.533a3.29 3.29 0 0 0-2.701.955c-1.196 1.194-.921 3.379 0 8.43l3.586.405-.885-9.79ZM457.409 8.076a5.685 5.685 0 0 0 2.2-.418c1.1-.633 1.387.621.777 1.708a5.112 5.112 0 0 1-4.16 2.77c0-.156-1.029-2.806-1.029-2.806l2.212-1.254Z" fill="#263238"/><path d="M438.161 19.324c-.526.322-1.291-.705-1.949-1.385a2.307 2.307 0 0 0-3.873.62c-1.088 2.293 1.387 5.35 2.845 6.352a2.536 2.536 0 0 0 2.977.263l.383 8.776a9.402 9.402 0 0 0 7.065 5.36c5.165.693 4.101-3.581 2.391-5.635v-3.188a12.42 12.42 0 0 0 3.934.191c.669-.179 2.271-2.113 3.311-4.286a19.45 19.45 0 0 0 1.375-14.065c-1.853-7.856-10.305-8.095-15.339-4.931-5.033 3.164-3.12 11.928-3.12 11.928Z" fill="#FFA8A7"/><path d="M438.161 20.219c-.263 0-1.279-1.683-1.949-2.28-.92-.836.263-8.358.263-8.358a5.166 5.166 0 0 1 .897-4.776c1.817-1.91 5.332-1.588 7.902-1.672a23.362 23.362 0 0 0 9.206-1.85c3.658-1.588 3.933-1.768 4.376-.168a8.896 8.896 0 0 1-1.554 7.737l-1.196 1.935s-1.112.93-4.519 1.349c-3.407.418-9.218-1.421-9.947-1.517-.992-.13-1.196.824-1.734 3.44-.454 2.256-.836 6.148-1.745 6.16Z" fill="#263238"/><path d="m436.487 10.13-3.228-1.731a1.782 1.782 0 0 1 2.391-.812 1.92 1.92 0 0 1 .837 2.543Z" fill="#263238"/><path d="M448 30.487a37.133 37.133 0 0 1-6.444-1.85 5.593 5.593 0 0 1-2.307-2.28c.252.974.7 1.888 1.315 2.686 1.196 1.564 7.436 2.71 7.436 2.71v-1.266Z" fill="#F28F8F"/><path d="M448.156 19.157a.98.98 0 0 1-.957.99.983.983 0 0 1-.891-.626.988.988 0 0 1-.065-.377.98.98 0 0 1 .956-.99.984.984 0 0 1 .891.626.97.97 0 0 1 .066.377ZM447.14 15.539l-2.045 1.194a1.188 1.188 0 0 1 .115-1.336c.1-.123.223-.225.363-.3a1.197 1.197 0 0 1 1.567.442Z" fill="#263238"/><path d="m447.57 25.568 2.188.824a1.194 1.194 0 0 1-1.483.716 1.199 1.199 0 0 1-.781-1.079 1.19 1.19 0 0 1 .076-.461Z" fill="#F28F8F"/><path d="m456.692 16.339-1.865-1.433a1.194 1.194 0 0 1 1.626-.25 1.194 1.194 0 0 1 .239 1.683ZM456.118 18.882a.98.98 0 0 1-.956.99.986.986 0 0 1-.687-.303.97.97 0 0 1-.204-.323.97.97 0 0 1-.066-.376.98.98 0 0 1 .957-.991.99.99 0 0 1 .956 1.003Z" fill="#263238"/><path d="m451.611 18.762-.897 5.684 3.144-.37-2.247-5.314Z" fill="#F28F8F"/><path d="m457.062 166.242-.191-.86c.622.12 3.312 4.573 5.978 6.507 2.917 2.114 5.439 3.367 6.743 4.323 1.745 1.277-.778 3.892-5.069 4.131-2.129.107-5.978-.538-7.174-1.672-1.195-1.134-2.056-3.009-3.012-3.821-.957-.811-2.858-1.528-3.515-2.567a7.608 7.608 0 0 1-.371-3.211c0-1.123.084-2.388.466-2.329l.144.645a7.373 7.373 0 0 0 3.586.8c1.041-.048 2.918-.274 2.415-1.946ZM450.642 113.361s-2.546-18.065-3.228-20.859a28.84 28.84 0 0 0 5.667-4.047 47.909 47.909 0 0 1-3.873 4.835l1.434 20.071ZM435.28 112.728s3.06 7.606 4.304 9.289c0 0-.311 5.803-.275 6.973l-1.602 1.397a36.605 36.605 0 0 1 .717-7.821 47.107 47.107 0 0 1-3.144-9.838Z" fill="#263238"/><path d="M426.421 65.746s24.114 2.579 26.947 1.707c2.834-.872 6.635-3.678 8.632-4.872 1.997-1.193 3.515-1.265 3.515-.776 0 .49-1.746 3.152-2.14 4.263-.395 1.11 1.877 1.11 4.878.418 3-.693 4.196-2.388 4.973-1.41.777.98-1.662 5.97-6.635 7.845-4.974 1.875-8.668.621-12.78.8-4.113.18-29.446 1.791-35.149 0a5.026 5.026 0 0 1 1.973-4.86 18.191 18.191 0 0 1 5.786-3.115ZM292.737 180.784c.059-.776 1.53-9.134 2.534-13.814l9.839 3.009-1.578 6.555-8.177 7.904a3.254 3.254 0 0 1-2.044-1.302 3.238 3.238 0 0 1-.574-2.352Z" fill="#FFA8A7"/><path d="M314.304 110.03h4.782c3.529 0 6.914 1.4 9.409 3.892a13.281 13.281 0 0 1 3.897 9.397v33.861h-31.394v-33.861c0-3.525 1.401-6.905 3.897-9.397a13.315 13.315 0 0 1 9.409-3.892Z" fill="#263238"/><path d="m340.331 163.221 4.65 8.513-7.245 6.185-6.623-10.495 9.218-4.203Z" fill="#F28F8F"/><path d="M322.876 144.237c4.615 0 9.696 1.719 11.441 5.337l7.173 14.853s-4.076 5.97-10.544 5.552l-8.07-25.742Z" fill="#455A64"/><path d="M326.606 291.538a42.061 42.061 0 0 0 5.332 5.874c.314.252.564.575.729.943.204.621.467 2.113-2.295 2.722a9.985 9.985 0 0 1-8.118-1.755c-2.02-1.624-1.781-4.477-3.646-6.352-1.387-1.373-3.264-1.91-4.304-3.582-.729-1.194-.335-2.614.323-4.37.657-1.755 1.124-3.355 1.757-3.128l-.215.884c.657 1.397 4.782 2.28 6.802 1.612a77.804 77.804 0 0 0 3.635 7.152Z" fill="#263238"/><path d="M328.232 293.591a27.994 27.994 0 0 1-1.626-2.053 49.222 49.222 0 0 1-2.833-5.457 4.889 4.889 0 0 1-.263-3.582l1.362-4.597-7.173-1.647-1.554 6.435c-.335 1.469.729 2.925 2.678 5.051 1.949 2.125 4.196 6.805 5.978 8.131 1.781 1.325 3.24 1.456 4.148 1.003.909-.454 1.136-.872-.717-3.284Z" fill="#FFA8A7"/><path d="M307.31 295.585v-1.015c.406 1.194 2.248 6.28 5.045 8.836 2.236 2.017 5.272 4.369 6.038 6.626.765 2.257-4.221 3.14-6.301 2.77a12.837 12.837 0 0 1-7.245-3.88c-1.195-1.469-1.96-3.212-2.821-4.37-.861-1.158-2.822-2.388-3.276-3.773a8.488 8.488 0 0 1 .395-3.702c.334-1.194.681-2.614 1.111-2.507v.836a5.674 5.674 0 0 0 3.587 1.194c.98 0 3.479-.227 3.467-1.015Z" fill="#263238"/><path d="m314.376 305.185-2.021-1.791a20.68 20.68 0 0 1-4.304-6.866 9.671 9.671 0 0 1-.741-3.713v-4.023h-7.054v6.722c.335 1.468 3.587 5.361 5.416 7.904a10.295 10.295 0 0 0 6.384 4.25c2.69.358 4.089-.477 2.32-2.483Z" fill="#FFA8A7"/><path d="M301.655 186.026c-5.463 11.94.203 53.98.203 53.98-.167 1.946-2.391 5.754-3.204 14.327-.98 10.077 1.531 35.366 1.531 35.366a7.622 7.622 0 0 0 7.173.286s6.731-38.099 7.998-48.117l4.041-32.142 5.978 31.366a39.829 39.829 0 0 0-3.946 7.833c-1.422 4.429-4.304 29.67-4.304 29.67a8.663 8.663 0 0 0 7.293 2.137s13.809-34.625 14.43-41.694c.371-4.238-5.822-54.708-5.822-54.708l-31.371 1.696Z" fill="#37474F"/><path d="m319.349 209.679.957-6.902s7.519-1.552 10.927-4.775a19.46 19.46 0 0 1-8.883 5.898l-1.004 6.662L322.541 226l-3.192-16.321Z" fill="#263238"/><path d="M311.363 144.559a13.849 13.849 0 0 0-9.265 7.57 11.927 11.927 0 0 0-.335 9.027l4.818 14.124s-2.284 5.528-4.95 10.746c12.278 6.841 27.593 3.248 31.287-1.743.156-1.063-.059-5.839.24-11.259.31-5.791 1.111-12.334.203-15.904-1.698-6.651-4.866-12.883-11.167-12.883l-10.831.322Z" fill="#F03E3D"/><path d="M309.486 144.559c-4.184.585-10.329 1.433-12.457 11.367-2.129 9.934-2.762 13.576-2.762 13.576a13.918 13.918 0 0 0 10.377 3.964l2.164-7.642 2.678-21.265Z" fill="#455A64"/><path d="M311.865 152.941a5.512 5.512 0 0 1-3.889-1.608 5.497 5.497 0 0 1-1.61-3.884v-15.987h5.499v21.479Z" fill="#263238"/><path d="M327.24 116.369c1.661.98 3.706 5.146 3.502 13.874-.167 7.403-2.57 9.242-3.777 9.767-1.208.526-3.527.203-5.787-.179v4.442s3.121 3.582 2.929 5.671c-.191 2.089-4.519 2.519-7.448.525a19.106 19.106 0 0 1-4.782-5.014v-10.746a2.846 2.846 0 0 1-4.029.382c-2.499-1.66-2.594-5.755-1.136-7.164 1.459-1.409 4.579-1.003 5.165 1.027a17.85 17.85 0 0 0 8.369-2.507 13.457 13.457 0 0 0 6.994-10.078Z" fill="#FFA8A7"/><path d="M322.469 128.393a.928.928 0 0 1-.557.863.937.937 0 0 1-1.014-.173.934.934 0 0 1 .591-1.609.937.937 0 0 1 .683.255.936.936 0 0 1 .297.664Z" fill="#263238"/><path d="m322.72 134.661 2.164.693a1.12 1.12 0 0 1-.539.69 1.12 1.12 0 0 1-.871.086 1.194 1.194 0 0 1-.754-1.469Z" fill="#F28F8F"/><path d="m330.109 125.527-1.877-1.301c.079-.127.183-.237.305-.323a1.113 1.113 0 0 1 .853-.175c.147.03.285.09.408.175a1.19 1.19 0 0 1 .311 1.624ZM329.678 127.712a.951.951 0 0 1-.884 1.015.968.968 0 0 1-.981-.919.938.938 0 0 1 .532-.89.924.924 0 0 1 .714-.037.937.937 0 0 1 .619.831Z" fill="#263238"/><path d="m325.279 127.187.155 5.6 2.953-.92-3.108-4.68ZM321.178 139.831c-2.391-.31-7.293-1.719-8.058-3.654a4.979 4.979 0 0 0 1.722 2.472c1.459 1.254 6.336 2.674 6.336 2.674v-1.492Z" fill="#F28F8F"/><path d="M339.96 173.047c1.351-2.507 1.686-2.614 2.499-3.164.813-.549 5.726-1.289 7.771-1.468 2.391-.203 3.264.239 2.594 2.316a105.44 105.44 0 0 1-6.791 15.104c-.645.86-.777 1.648-3.479 1.91-2.701.263-5.702.382-6.635.442-.932.06-2.223.287-1.387-2.46a90.847 90.847 0 0 1 3.695-9.11c1.088-2.256 1.733-3.57 1.733-3.57Z" fill="#37474F"/><path d="M303.532 176.582s21.866 2.304 24.7 1.433c2.833-.872 6.635-3.702 8.679-4.872 2.045-1.17 3.515-1.265 3.515-.788 0 .478-1.745 3.164-2.152 4.263-.406 1.098 1.889 1.11 4.878.417 2.989-.692 4.196-2.387 4.985-1.408.79.979-1.661 5.969-6.635 7.844-4.973 1.875-8.667.633-12.78.8-4.113.167-27.665 2.006-33.367.215a5.019 5.019 0 0 1 1.972-4.86 17.448 17.448 0 0 1 6.205-3.044Z" fill="#FFA8A7"/><path d="M305.11 170.97a73.858 73.858 0 0 0 2.391-7.749s-.394 5.767-2.02 8.859l-.371-1.11Z" fill="#37474F"/><path d="m128.184 99.964-3.886 8.382 7.233 6.185 6.253-10.543-9.6-4.024Z" fill="#F28F8F"/><path d="M146.021 80.79c-4.615 0-9.696 1.73-11.441 5.336-1.746 3.606-7.174 14.865-7.174 14.865s4.077 5.97 10.545 5.54l8.07-25.742Z" fill="#37474F"/><path d="M166.034 213.786h-6.384v9.277h6.384v-9.277ZM143.588 202.307l-6.38.22.319 9.271 6.381-.219-.32-9.272Z" fill="#FFA8A7"/><path d="M165.604 123.211c0 6.089.789 45.443.789 45.443.155 1.743 1.793 4.979 1.434 11.701-.478 9.134-1.267 34.506-1.267 34.506s-2.989 2.961-7.173 0c0 0-5.787-34.483-6.922-43.533-1.005-7.892-2.69-29.348-2.69-29.348l-5.918 25.253s1.04 5.97 1.279 10.125c.239 4.155-1.088 28.404-1.088 28.404a7.004 7.004 0 0 1-6.946.263s-5.117-35.365-5.774-39.15c-.658-3.785 4.483-43.664 4.483-43.664h29.793Z" fill="#37474F"/><path d="M156.004 81.076h.095a12.653 12.653 0 0 1 6.902 4.497 12.622 12.622 0 0 1 2.662 7.789v29.849c-4.471 4.859-20.061 7.164-29.888 0V92.168c0-4.955 2.762-10.925 10.377-11.367l9.852.275Z" fill="#80C4D3"/><path d="M158.156 55.68a3.423 3.423 0 0 1 2.809.99c1.196 1.195.956 3.523 0 8.765l-3.73.43.921-10.185ZM136.385 54.223a5.98 5.98 0 0 1-2.331-.465c-1.196-.657-1.447.644-.825 1.767a5.336 5.336 0 0 0 4.339 2.877c0-.155 1.064-2.901 1.064-2.901l-2.247-1.278Z" fill="#263238"/><path d="M156.398 65.865c.562.334 1.351-.729 2.032-1.445a2.392 2.392 0 0 1 4.029.656c1.196 2.388-1.446 5.564-2.953 6.603a2.654 2.654 0 0 1-3.108.275l-.394 9.122a9.755 9.755 0 0 1-7.353 5.576c-5.368.728-4.256-3.69-2.499-5.863V77.47c-1.338.29-2.715.363-4.076.215-.706-.191-2.392-2.209-3.456-4.466-1.195-2.53-3.216-7.02-1.422-14.626 1.925-8.179 10.76-8.43 15.948-5.134 5.189 3.295 3.252 12.406 3.252 12.406Z" fill="#FFA8A7"/><path d="M156.398 66.796c.287 0 1.339-1.743 2.032-2.388.957-.872-.274-8.74-.274-8.74s.968-2.973-.921-4.955c-1.889-1.982-5.559-1.648-8.237-1.743a24.024 24.024 0 0 1-9.565-1.922c-3.801-1.648-4.088-1.84-4.555-.18a9.253 9.253 0 0 0 1.614 8.048l1.889.692s1.017.908 4.567 1.338a53.48 53.48 0 0 0 9.828-.18c1.028-.143 1.195.848 1.805 3.582.478 2.388.885 6.436 1.817 6.448Z" fill="#263238"/><path d="m158.144 56.3 3.359-1.802a1.845 1.845 0 0 0-1.824-1.047 1.84 1.84 0 0 0-.71.211 2.006 2.006 0 0 0-.825 2.639Z" fill="#263238"/><path d="M146.164 77.47a37.263 37.263 0 0 0 6.707-1.922 5.667 5.667 0 0 0 2.391-2.388 7.745 7.745 0 0 1-1.363 2.794c-1.267 1.623-7.747 2.817-7.747 2.817l.012-1.301Z" fill="#F28F8F"/><path d="M147.36 64.623a1.005 1.005 0 1 0 1.926-.421 1.007 1.007 0 0 0-.934-.606 1.016 1.016 0 0 0-.992 1.027ZM148.412 60.874l2.14 1.194a1.291 1.291 0 0 0-.502-1.696 1.195 1.195 0 0 0-1.638.502Z" fill="#263238"/><path d="m147.432 71.368-2.272.86a1.2 1.2 0 0 0 1.072.822c.16.008.32-.015.47-.07a1.267 1.267 0 0 0 .73-1.612Z" fill="#F28F8F"/><path d="m138.477 61.697 1.925-1.504a1.207 1.207 0 0 0-.793-.49 1.199 1.199 0 0 0-.905.227 1.288 1.288 0 0 0-.227 1.767ZM139.075 64.348a1.014 1.014 0 0 0 .992 1.027 1.028 1.028 0 0 0 1.004-1.039.994.994 0 0 0-.25-.778 1.003 1.003 0 0 0-1.496 0 1.002 1.002 0 0 0-.25.778v.012Z" fill="#263238"/><path d="m144.156 63.405-.335 5.982-3.12-1.063 3.455-4.92Z" fill="#F28F8F"/><path d="M159.65 219.911v-.919c-.61.262-2.033 5.671-4.555 7.975-2.021 1.827-4.782 3.952-5.464 5.97-.681 2.018 3.826 3.296 5.703 2.961 2.188-.382 5.978-1.922 6.922-3.343.945-1.421 1.399-3.522 2.164-4.573.765-1.05 2.559-2.209 2.977-3.414a7.745 7.745 0 0 0-.371-3.344c-.299-1.122-.609-2.388-.992-2.256v.692a5.015 5.015 0 0 1-3.192 1.075c-.921.071-3.204-.108-3.192-.824ZM137.473 209.822c-.335 0-.61.478-1.339 1.266a13.665 13.665 0 0 1-3.754 2.698c-2.391 1.194-7.03 3.033-9.134 3.976-1.303.597-1.196 2.173.108 3.081 1.303.907 4.638 1.552 8.571.668 2.14-.477 4.938-2.447 6.695-2.388 1.758.06 5.07.084 6.373-.812 1.303-.895.789-2.817.418-4.465-.371-1.648-.98-4.537-1.578-4.418v.561c-.765 1.194-4.675 1.636-6.36.788v-.955Z" fill="#263238"/><path d="M128.937 109.612c-1.351-2.52-1.686-2.627-2.499-3.176-.813-.55-5.727-1.29-7.771-1.457-2.391-.203-3.264.239-2.594 2.304a106.298 106.298 0 0 0 6.743 15.116c.645.848.777 1.636 3.479 1.899 2.701.262 5.702.382 6.635.441.932.06 2.223.287 1.387-2.459a91.805 91.805 0 0 0-3.695-9.11c-.98-2.257-1.685-3.558-1.685-3.558Z" fill="#37474F"/><path d="M177.941 117.181c-.059-.788-2.391-9.695-3.586-13.814l-8.751 3.009 2.056 6.483 7.699 7.964a3.238 3.238 0 0 0 2.582-3.642Z" fill="#FFA8A7"/><path d="M167.624 112.859s-24.126 2.579-26.959 1.708c-2.834-.872-6.635-3.702-8.68-4.872-2.044-1.17-3.515-1.265-3.515-.776 0 .49 1.746 3.152 2.152 4.251.407 1.098-1.889 1.11-4.877.418-2.989-.693-4.197-2.388-4.986-1.409-.789.979 1.662 5.97 6.635 7.844 4.974 1.875 8.668.633 12.781.8 4.112.167 29.446 1.791 35.148 0a4.992 4.992 0 0 0-1.972-4.847 18.388 18.388 0 0 0-5.727-3.117Z" fill="#FFA8A7"/><path d="M158.024 81.756c3.79 1.254 11.31 1.887 13.737 10.077 2.427 8.191 3.646 13.504 3.646 13.504-1.435 1.911-7.173 4.119-9.803 3.296l-7.58-26.877Z" fill="#455A64"/><path d="m165.604 108.633-2.595-9.194 2.595 12.943v-3.749Z" fill="#37474F"/><path d="m101.632 139.72-12.236-1.736a.35.35 0 0 1-.162-.063.235.235 0 0 1-.088-.121.237.237 0 0 1 .007-.151.358.358 0 0 1 .1-.141l9.925-8.253 2.454 10.465Z" fill="#000"/><path d="m89.906 137.832 11.586 1.578-4.471-8.175-7.183 5.212.068 1.385Z" fill="#EBEBEB"/><path d="m110.115 132.335-8.483 7.385-6.335-10.673a.724.724 0 0 1-.072-.57c.054-.201.186-.395.376-.555l12.986-10.963c.092-.078.204-.14.326-.182.122-.041.25-.06.374-.056a.819.819 0 0 1 .335.082.54.54 0 0 1 .222.202l5.843 10.065-5.572 5.265Z" fill="#FF725E"/><path d="m89.75 135.063 11.303 3.599-5.136-8.592-6.167 4.993Z" fill="#EBEBEB"/><path d="M95.917 130.07a.673.673 0 0 0-.127.084l-.338.256-1.274 1c-1.104.888-2.65 2.123-4.5 3.602l-.115.092.133.041 7.344 2.353 3.951 1.252.107-.183c-3.233-.622-6.033-1.164-8.054-1.556l-2.353-.432-.63-.106a1.36 1.36 0 0 0-.224-.03s.066.027.208.062l.618.137 2.317.489 8.022 1.623.113-.184-3.942-1.259-7.367-2.326.038.128c1.824-1.497 3.374-2.754 4.439-3.649l1.234-1.031.317-.273c.052-.054.089-.088.083-.09Z" fill="#263238"/><path d="M100.04 128.978c.172-.16 7.581-6.492 7.581-6.492l3.401 5.699-7.634 6.736-3.348-5.943Z" fill="#fff"/><path d="M98.415 169.394c2.295-.657 5.762-9.182 8.368-18.853 2.607-9.671 3.982-11.808 4.065-14.853.084-3.045-.131-7.045-.131-7.045l-4.543 6.627a11.92 11.92 0 0 0-1.196-3.665c-.586-1.194-1.686-2.138-2.582-1.421-.478.382.789 2.018.514 5.671a19.07 19.07 0 0 0 .43 4.334l-8.44 20.417 3.515 8.788Z" fill="#FFA8A7"/><path d="M64.45 127.056c-2.667-.753-4.926.668-6.181 4.907a165.46 165.46 0 0 0-4.782 24.333c-.36 2.949-.766 6.531 2.056 6.806 2.152.215 8.369-.979 9.456-2.054 1.46-1.409 1.196-7.092 1.196-7.092h-3.228s.694-4.478.897-5.839c.717-4.573 1.781-10.339 1.781-10.339l-1.195-10.722Z" fill="#F28F8F"/><path d="m80.1 122.865-1.089 9.563-9.444 1.099 1.362-12.692 9.17 2.03Z" fill="#FFA8A7"/><path d="M59.883 108.907c.777-8.835 5.57-12.465 9.277-13.348 7.484-1.755 14.873.752 17.933 5.97a13.113 13.113 0 0 1 0 10.339c-1.626 3.702-27.174-2.985-27.174-2.985" fill="#263238"/><path d="M87.56 113.659s1.35 3.642.992 3.917a5.289 5.289 0 0 1-1.758.31l.765-4.227Z" fill="#FFA8A7"/><path d="M83.53 102.149c1.782 1.529 4.782 4.299 3.981 11.94-.884 7.904-2.797 10.042-4.088 10.806-.861.513-4.675-.382-6.444-1.421-2.2-1.302-7.078-4.657-8.56-9.182-1.758-5.325-.873-11.677 2.977-13.337a12.634 12.634 0 0 1 12.134 1.194Z" fill="#FFA8A7"/><path d="M85.73 102.352a14.05 14.05 0 0 1-5.105 11.092s-1.112-2.877-3.587-2.221c-2.474.657-2.39 3.917-.621 5.684a3.596 3.596 0 0 0 3.718 1.015 10.84 10.84 0 0 1-3.025 5.97 14.067 14.067 0 0 1-14.107-4.896c-5.464-6.555-3.85-16.966 4.686-20.035a17.094 17.094 0 0 1 18.041 3.391ZM68.43 266.751l4.077 5.659a13.52 13.52 0 0 1-5.917 1.194c-3.647.143-4.651-1.051-4.783-1.337-.621-1.326.347-3.702.61-5.743l6.014.227Z" fill="#263238"/><path d="M72.256 269.676s4.938-.322 8.37-.752c3.43-.43 6.12 1.194 5.32 2.638-.802 1.445-2.69 2.579-5.62 3.582-2.498.848-5.511 1.457-8.13 2.233-2.618.776-4.399 1.731-5.917 1.194-1.698-.585-2.391-1.265-2.284-2.495.37-1.754.83-3.487 1.375-5.194l6.886-1.206Z" fill="#263238"/><path d="M61.807 261.044s.61 5.134.658 6.244c.048 1.11 5.021 1.457 5.978-.561l.155-6.28-6.79.597Z" fill="#F28F8F"/><path d="m66.817 264.208-1.734 7.796s-.18.943 3.898 1.552c4.076.609 10.437-2.125 11.525-2.674 1.088-.549 1.195-1.66-2.786-1.445-3.981.215-5.404.239-5.404.239l1.303-3.463-6.802-2.005Z" fill="#FFA8A7"/><path d="M61.807 159.83c-3.407 5.29-6.635 9.946-7.328 15.892-1.459 12.561 3.323 26.912 4.34 36.202a16.784 16.784 0 0 0-3.216 9.062c0 3.844 6.204 40.058 6.204 40.058s4.507 1.373 6.779-.597l4.268-66.624-2.248-8.107-8.799-25.886Z" fill="#455A64"/><path d="m72.854 193.823-2.248-8.107a54.475 54.475 0 0 1-12.158-4.776s2.307 4.179 8.895 6.471l3.431 10.423.299 23.88 1.781-27.891Z" fill="#37474F"/><path d="M61.807 159.83c-1.817 2.961-6.18 8.048-5.248 12.919 1.124 5.97 4.304 10.065 14.047 12.967l9.134 33.037s-4.782 4.454-6.204 8.68c-1.423 4.227-6.72 36.775-6.72 36.775s1.627 2.65 6.767 2.006c0 0 17.933-40.822 19.129-43.449a13.202 13.202 0 0 0 1.518-8.871c-.574-4.275-6.67-51.103-6.67-51.103l-25.753-2.961Z" fill="#455A64"/><path d="M60.146 130.017a4.539 4.539 0 0 1 4.937-2.89c6.372 1.732 16.283 4.012 18.16 4.561 0 0-.849 12.262 6.492 16.585-.347 2.734-2.212 14.518-2.212 14.518s-8.823 4.275-16.08 2.173c-7.256-2.101-9.695-5.134-9.695-5.134l3.586-5.91c-.777-1.922-3.778-8.453-5.714-14.519a17.73 17.73 0 0 1 .526-9.384Z" fill="#FFB900"/><path d="M64.45 151.592a64.117 64.117 0 0 0 9.456 4.668 17.833 17.833 0 0 1-8.464-2.388l-.992-2.28ZM89.58 147.353a13.143 13.143 0 0 1-6.11-5.731 12.656 12.656 0 0 0 6.11 9.456v-3.725Z" fill="#E0E0E0"/><path d="M83.303 131.688c4.005 1.194 6.492 1.576 8.656 3.51 2.845 2.556 5.786 17.003 6.384 19.988 1.04 5.169 2.188 10.542 1.064 12.954-.813 1.743-5.236 3.045-7.173-2.591-.407-1.194-.49-1.743-.85-2.817-1.828-5.397-4.578-15.713-4.578-15.713s-5.416-2.985-3.503-15.331Z" fill="#FFA8A7"/><path d="M63.888 98.962c-1.423.823-3.993 1.623-5.596 9.086a114.134 114.134 0 0 0-2.319 19.008c.06 2.316 4.866 8.752 15.004 8.143s13.82-6.543 13.82-6.543-4.985-2.03-4.59-10.746c0 0-1.758 3.45-6.576 1.719s-9.743-20.668-9.743-20.668Z" fill="#263238"/></svg>