<svg width="30" height="24" fill="none" xmlns="http://www.w3.org/2000/svg"><path d="M21.667 8.667c0-4.604-4.85-8.334-10.834-8.334S0 4.063 0 8.667c0 1.786.734 3.432 1.98 4.791C1.28 15.031.13 16.281.114 16.297a.414.414 0 0 0-.079.453c.068.156.214.25.38.25 1.907 0 3.485-.64 4.62-1.302C6.714 16.516 8.698 17 10.833 17c5.985 0 10.834-3.73 10.834-8.333Zm6.354 11.458C29.266 18.771 30 17.12 30 15.333c0-3.484-2.787-6.468-6.734-7.713.047.344.067.693.067 1.047 0 5.515-5.609 10-12.5 10-.562 0-1.109-.042-1.65-.1 1.64 2.995 5.494 5.1 9.984 5.1 2.135 0 4.12-.48 5.796-1.302 1.136.661 2.714 1.302 4.62 1.302a.417.417 0 0 0 .302-.703c-.015-.016-1.166-1.26-1.864-2.839Z" fill="#000"/></svg>